<svg version="1.1" xmlns="http://www.w3.org/2000/svg" xmlns:xlink="http://www.w3.org/1999/xlink" width="57.84567" height="70.35591" viewBox="0,0,57.84567,70.35591"><g transform="translate(-205.74154,-137.13141)"><g data-paper-data="{&quot;isPaintingLayer&quot;:true}" fill-rule="nonzero" stroke-linecap="butt" stroke-linejoin="miter" stroke-miterlimit="10" stroke-dasharray="" stroke-dashoffset="0" style="mix-blend-mode: normal"><path d="M219.51956,204.48733v-19.65381h41.06765v19.65381z" fill="#ff0000" stroke="#000000" stroke-width="6"/><path d="M220.36248,186.1155c0,0 -10.63345,-16.48081 -13.52512,-20.96262c-1.36517,-2.11587 -0.42522,-6.34278 1.90418,-7.84571c4.46773,-2.88259 20.04216,-12.93124 26.62074,-17.17575c1.8341,-1.18336 4.31985,0.17816 5.50636,2.01713c2.78724,4.31996 14.00222,21.70208 14.00222,21.70208z" fill="#ff0000" stroke="#000000" stroke-width="6"/><path d="M234.49413,158.74972c-1.22966,-1.90584 -0.6815,-4.44767 1.22436,-5.67733c1.90584,-1.22966 4.44767,-0.6815 5.67733,1.22436c1.22966,1.90584 0.6815,4.44767 -1.22436,5.67733c-1.90584,1.22966 -4.44767,0.6815 -5.67733,-1.22436z" fill="#000000" stroke="#ffffff" stroke-width="2"/></g></g></svg>