<svg version="1.1" xmlns="http://www.w3.org/2000/svg" xmlns:xlink="http://www.w3.org/1999/xlink" width="47.17442" height="54.97463" viewBox="0,0,47.17442,54.97463"><g transform="translate(-216.41279,-152.51268)"><g data-paper-data="{&quot;isPaintingLayer&quot;:true}" fill-rule="nonzero" stroke-linecap="butt" stroke-linejoin="miter" stroke-miterlimit="10" stroke-dasharray="" stroke-dashoffset="0" style="mix-blend-mode: normal"><path d="M219.51956,204.48731v-19.65381h41.06765v19.65381z" fill="#ff0000" stroke="#000000" stroke-width="6"/><path d="M219.41279,186.02008c0,0 0,-19.61345 0,-24.94715c0,-2.51805 3.08144,-5.56025 5.8536,-5.56025c5.31695,0 23.85173,0 31.68076,0c2.18272,0 3.5333,2.49171 3.5333,4.68023c0,5.14109 0,25.82717 0,25.82717z" fill="#ff0000" stroke="#000000" stroke-width="6"/><path d="M247.68023,171.92653c0,-2.2681 1.83866,-4.10677 4.10677,-4.10677c2.2681,0 4.10677,1.83866 4.10677,4.10677c0,2.2681 -1.83866,4.10677 -4.10677,4.10677c-2.2681,0 -4.10677,-1.83866 -4.10677,-4.10677z" fill="#000000" stroke="#ffffff" stroke-width="2"/></g></g></svg>