<svg version="1.1" xmlns="http://www.w3.org/2000/svg" xmlns:xlink="http://www.w3.org/1999/xlink" width="47.3736" height="48.91188" viewBox="0,0,47.3736,48.91188"><defs><linearGradient x1="227.65996" y1="181.79212" x2="223.65189" y2="181.79212" gradientUnits="userSpaceOnUse" id="color-1"><stop offset="0" stop-color="#ffe400"/><stop offset="1" stop-color="#ffffff"/></linearGradient><linearGradient x1="218.695" y1="184.3106" x2="261.30121" y2="184.3106" gradientUnits="userSpaceOnUse" id="color-2"><stop offset="0" stop-color="#c77cff" stop-opacity="0"/><stop offset="1" stop-color="#c77cff"/></linearGradient><linearGradient x1="216.3132" y1="184.82972" x2="263.68678" y2="184.82972" gradientUnits="userSpaceOnUse" id="color-3"><stop offset="0" stop-color="#c77cff" stop-opacity="0"/><stop offset="1" stop-color="#c77cff"/></linearGradient><linearGradient x1="219.83405" y1="184.3595" x2="260.1698" y2="184.3595" gradientUnits="userSpaceOnUse" id="color-4"><stop offset="0" stop-color="#c77cff" stop-opacity="0"/><stop offset="1" stop-color="#c77cff"/></linearGradient><linearGradient x1="232.26898" y1="170.97813" x2="246.08576" y2="170.97813" gradientUnits="userSpaceOnUse" id="color-5"><stop offset="0" stop-color="#c77cff" stop-opacity="0"/><stop offset="1" stop-color="#c77cff"/></linearGradient><linearGradient x1="233.18885" y1="164.53108" x2="238.39249" y2="164.53108" gradientUnits="userSpaceOnUse" id="color-6"><stop offset="0" stop-color="#c77cff" stop-opacity="0"/><stop offset="1" stop-color="#c77cff"/></linearGradient><linearGradient x1="230.76437" y1="163.68404" x2="240.26721" y2="163.68404" gradientUnits="userSpaceOnUse" id="color-7"><stop offset="0" stop-color="#c77cff" stop-opacity="0"/><stop offset="1" stop-color="#c77cff"/></linearGradient></defs><g transform="translate(-216.3132,-155.54406)"><g data-paper-data="{&quot;isPaintingLayer&quot;:true}" fill-rule="nonzero" stroke="none" stroke-linecap="butt" stroke-linejoin="miter" stroke-miterlimit="10" stroke-dasharray="" stroke-dashoffset="0" style="mix-blend-mode: normal"><g><g><path d="M261.30121,182.39482c0,11.06139 -9.53699,20.03112 -21.30348,20.03112c-11.76649,0 -21.30273,-8.96591 -21.30273,-20.03112c0,-11.06139 9.53548,-16.19957 21.30273,-16.19957c11.76573,-0.00076 21.30348,5.13894 21.30348,16.19957z" fill="#ec1c2c" stroke-width="1"/><path d="M263.68678,182.18087c0,12.30177 -10.60454,22.27507 -23.68754,22.27507c-13.08072,0 -23.68602,-9.9733 -23.68602,-22.27507c0,-10.84133 8.23951,-15.72216 19.14938,-16.7303c0,0 3.44779,-0.44163 6.9565,-0.14391c11.94237,0.55584 21.2677,5.343 21.2677,16.87421zM260.073,182.50752c0,-9.59563 -7.61971,-14.45511 -17.47421,-15.16783c0,0 -6.24911,0.08756 -6.43871,0.10964c-9.24766,1.02109 -16.22927,5.87068 -16.22927,15.05665c0,10.42102 8.98344,18.87222 20.06919,18.87222c11.08501,0 20.06843,-8.44966 20.073,-18.8707z" fill="#231f20" stroke-width="1"/><path d="M260.16978,182.49857c-0.00457,10.42104 -9.08477,18.97681 -20.16978,18.97681c-11.08575,0 -20.16595,-8.55732 -20.16595,-18.97834c0,-9.18597 7.05685,-14.12139 16.30451,-15.14248c0.1896,-0.02208 6.4749,-0.11094 6.4749,-0.11094c9.85451,0.71271 17.55633,5.65935 17.55633,15.25498z" data-paper-data="{&quot;noHover&quot;:false,&quot;origItem&quot;:[&quot;Path&quot;,{&quot;applyMatrix&quot;:true,&quot;segments&quot;:[[[250.32751,181.29011],[0,0],[0,-4.93693]],[[241.33707,173.4863],[5.07012,0.36669],[0,0]],[[238.02437,173.54271],[0.09755,-0.01136],[-4.7579,0.52535]],[[229.67445,181.28932],[0,-4.72616],[0,5.36159]],[[240,190.99903],[-5.70359,0],[5.70321,0]],[[250.32751,181.2901],[-0.00235,5.3616],[0,0]]],&quot;closed&quot;:true,&quot;fillColor&quot;:[0,0,0,1]}]}" fill="#ffe400" stroke-width="0.5"/></g><path d="M226.93014,181.79173c0,2.61249 1.69218,4.73005 -0.07683,4.73005c-1.76901,0 -3.20141,-2.11756 -3.20141,-4.73005c0,-2.61173 1.43241,-4.72929 3.20141,-4.72929c1.76901,0 0.07683,2.11832 0.07683,4.72929z" fill="url(#color-1)" stroke-width="1"/><g stroke-width="1"><path d="M245.3292,171.57856c-2.71681,0.13782 -5.3194,0.20636 -8.04154,0.51168c-1.81756,0.20406 -3.56886,0.22006 -4.91507,-1.15281c-0.29238,-0.30076 0.08985,-0.8193 0.45534,-0.58859c0.90002,0.56422 1.80689,0.79266 2.7191,0.83682c0.0594,0.04873 3.25438,-0.3731 4.7133,-0.83606c1.76044,-0.47971 3.52241,-0.87565 5.276,-0.29619c0.83835,0.27716 0.67615,1.4787 -0.20711,1.52516z" fill="#231f20"/><g><path d="M233.18885,159.10699c0.77742,-0.46447 1.55256,-0.93048 2.32924,-1.39571c0.55889,0.8589 1.12084,1.69725 1.57161,2.65132c1.64623,3.4752 1.28378,7.14608 1.23657,10.82155c-0.28554,0.06777 -0.74393,0.1165 -1.02642,0.16675c0.19644,-4.68132 -0.91754,-8.97277 -4.111,-12.24391z" fill="#99661d"/><path d="M240.17959,169.57828c0,0 -0.17512,1.42846 -0.19112,1.69801c0,0 -2.87138,0.85586 -3.99755,0.42793l-0.03502,-1.22516c0.02284,-2.44802 -0.73858,-5.07726 -1.18937,-5.90038c-0.21549,-0.39291 -1.08352,-2.63914 -3.73104,-4.99274c-0.45382,-0.40128 -0.30076,-1.15357 0.18428,-1.44522c1.37592,-0.82541 2.74802,-1.6508 4.12243,-2.4762c0.44163,-0.26422 0.96321,-0.067 1.26246,0.33122c4.20923,5.60265 3.70363,13.00306 3.57494,13.58251zM238.2486,170.12194c0.08529,-3.38231 0.3731,-6.52551 -1.1589,-9.75935c-0.45077,-0.95408 -1.01272,-1.79243 -1.57161,-2.65132c-0.77666,0.46523 -1.55181,0.93124 -2.32924,1.39571c3.01681,3.08991 4.24883,6.82932 4.21075,11.18019v0.87717l0.84444,-0.10737z" fill="#231f20"/></g></g></g><g><g><path d="M261.30121,182.39482c0,11.06139 -9.53699,20.03112 -21.30348,20.03112c-11.76649,0 -21.30273,-8.96591 -21.30273,-20.03112c0,-11.06139 9.53548,-16.19957 21.30273,-16.19957c11.76573,-0.00076 21.30348,5.13894 21.30348,16.19957z" fill="url(#color-2)" stroke-width="1"/><path d="M263.68676,182.18087c0,12.30177 -10.60454,22.27507 -23.68754,22.27507c-13.08072,0 -23.68602,-9.9733 -23.68602,-22.27507c0,-10.84133 8.23951,-15.72216 19.14938,-16.7303c0,0 3.44779,-0.44163 6.9565,-0.14391c11.94237,0.55584 21.2677,5.343 21.2677,16.87421zM260.073,182.50752c0,-9.59563 -7.61971,-14.45511 -17.47421,-15.16783c0,0 -6.24911,0.08756 -6.43871,0.10964c-9.24766,1.02109 -16.22927,5.87068 -16.22927,15.05665c0,10.42102 8.98344,18.87222 20.06919,18.87222c11.08501,0 20.06843,-8.44966 20.073,-18.8707z" fill="url(#color-3)" stroke-width="1"/><path d="M260.16978,182.49857c-0.00457,10.42104 -9.08477,18.97681 -20.16978,18.97681c-11.08575,0 -20.16595,-8.55732 -20.16595,-18.97834c0,-9.18597 7.05685,-14.12139 16.30451,-15.14248c0.1896,-0.02208 6.4749,-0.11094 6.4749,-0.11094c9.85451,0.71271 17.55633,5.65935 17.55633,15.25498z" data-paper-data="{&quot;noHover&quot;:false,&quot;origItem&quot;:[&quot;Path&quot;,{&quot;applyMatrix&quot;:true,&quot;segments&quot;:[[[500.65501,362.58022],[0,0],[0,-9.87386]],[[482.67413,346.9726],[10.14024,0.73338],[0,0]],[[476.04873,347.08542],[0.1951,-0.02272],[-9.5158,1.0507]],[[459.34889,362.57864],[0,-9.45232],[0,10.72318]],[[479.99999,381.99806],[-11.40718,0],[11.40642,0]],[[500.65501,362.5802],[-0.0047,10.7232],[0,0]]],&quot;closed&quot;:true,&quot;fillColor&quot;:[0,0,0,1]}]}" fill="url(#color-4)" stroke-width="0.5"/></g><g stroke-width="1"><path d="M245.3292,171.57856c-2.71681,0.13782 -5.3194,0.20636 -8.04154,0.51168c-1.81756,0.20406 -3.56886,0.22006 -4.91507,-1.15281c-0.29238,-0.30076 0.08985,-0.8193 0.45534,-0.58859c0.90002,0.56422 1.80689,0.79266 2.7191,0.83682c0.0594,0.04873 3.25438,-0.3731 4.7133,-0.83606c1.76044,-0.47971 3.52241,-0.87565 5.276,-0.29619c0.83835,0.27716 0.67615,1.4787 -0.20711,1.52516z" fill="url(#color-5)"/><g><path d="M233.18885,159.10699c0.77742,-0.46447 1.55256,-0.93048 2.32924,-1.39571c0.55889,0.8589 1.12084,1.69725 1.57161,2.65132c1.64623,3.4752 1.28378,7.14608 1.23657,10.82155c-0.28554,0.06777 -0.74393,0.1165 -1.02642,0.16675c0.19644,-4.68132 -0.91754,-8.97277 -4.111,-12.24391z" fill="url(#color-6)"/><path d="M240.17959,169.57828c0,0 -0.17512,1.42846 -0.19112,1.69801c0,0 -2.87138,0.85586 -3.99755,0.42793l-0.03502,-1.22516c0.02284,-2.44802 -0.73858,-5.07726 -1.18937,-5.90038c-0.21549,-0.39291 -1.08352,-2.63914 -3.73104,-4.99274c-0.45382,-0.40128 -0.30076,-1.15357 0.18428,-1.44522c1.37592,-0.82541 2.74802,-1.6508 4.12243,-2.4762c0.44163,-0.26422 0.96321,-0.067 1.26246,0.33122c4.20923,5.60265 3.70363,13.00306 3.57494,13.58251zM238.2486,170.12194c0.08529,-3.38231 0.3731,-6.52551 -1.1589,-9.75935c-0.45077,-0.95408 -1.01272,-1.79243 -1.57161,-2.65132c-0.77666,0.46523 -1.55181,0.93124 -2.32924,1.39571c3.01681,3.08991 4.24883,6.82932 4.21075,11.18019v0.87717l0.84444,-0.10737z" fill="url(#color-7)"/></g></g></g></g></g></svg>