<svg version="1.1" xmlns="http://www.w3.org/2000/svg" xmlns:xlink="http://www.w3.org/1999/xlink" width="686.68168" height="416.98574" viewBox="0,0,686.68168,416.98574"><defs><linearGradient x1="534.02253" y1="329.5" x2="-1.97748" y2="329.5" gradientUnits="userSpaceOnUse" id="color-1"><stop offset="0" stop-color="#ff7477"/><stop offset="1" stop-color="#c3585b"/></linearGradient></defs><g transform="translate(24.51801,41.98574)"><g data-paper-data="{&quot;isPaintingLayer&quot;:true}" fill-rule="nonzero" stroke-width="0" stroke-linecap="butt" stroke-linejoin="miter" stroke-miterlimit="10" stroke-dasharray="" stroke-dashoffset="0" style="mix-blend-mode: normal"><path d="M412.18468,325.66629v-315.31532h108.10811v315.31532z" fill="#fcfafa" stroke="#000000"/><path d="M27.8003,140.9816v-117.11712h40.7936v117.11712z" fill="#003eff" stroke="#000000"/><path d="M103.79036,293.55347l4.19343,-132.06557l34.51713,1.09601l-4.19343,132.06557z" fill="#003eff" stroke="#000000"/><path d="M208.82766,153.41077l-4.67959,-121.53156l24.00624,-0.92436l4.67959,121.53156z" fill="#003eff" stroke="none"/><path d="M297.97955,298.55347l4.19342,-132.06556l34.51713,1.096l-4.19342,132.06557z" fill="#003eff" stroke="#000000"/><path d="M-1.97748,375v-91h536v91z" data-paper-data="{&quot;index&quot;:null}" fill="url(#color-1)" stroke="none"/><path d="M-24.51801,46.60285v-88.58859h286.78679v88.58859z" data-paper-data="{&quot;index&quot;:null}" fill="#53ff45" stroke="#000000"/><path d="M375.37688,53.10435v-88.58859h286.78679v88.58859z" data-paper-data="{&quot;index&quot;:null}" fill="#53ff45" stroke="#000000"/><path d="M377.65015,106.44707v-66.06607h21.02102v66.06607z" fill="#003eff" stroke="#000000"/></g></g></svg>