<svg version="1.1" xmlns="http://www.w3.org/2000/svg" xmlns:xlink="http://www.w3.org/1999/xlink" width="61.84109" height="19.64131" viewBox="0,0,61.84109,19.64131"><g transform="translate(-209.07946,-186.846)"><g data-paper-data="{&quot;isPaintingLayer&quot;:true}" fill-rule="nonzero" stroke-linecap="butt" stroke-linejoin="miter" stroke-miterlimit="10" stroke-dasharray="" stroke-dashoffset="0" style="mix-blend-mode: normal"><path d="M211.22945,204.48731v-6.27695h57.6911v6.27695z" fill="#ff0000" stroke="#000000" stroke-width="4"/><path d="M211.07946,198.58932c0,0 0,-6.26406 0,-7.96751c0,-0.8042 4.32875,-1.77581 8.22303,-1.77581c7.46916,0 33.50648,0 44.50456,0c3.06625,0 4.96352,0.79579 4.96352,1.49475c0,1.64194 0,8.24857 0,8.24857z" fill="#ff0000" stroke="#000000" stroke-width="4"/><path d="M250.78905,194.08819c0,-0.72438 2.58292,-1.3116 5.76912,-1.3116c3.18619,0 5.76912,0.58722 5.76912,1.3116c0,0.72438 -2.58292,1.3116 -5.76912,1.3116c-3.18619,0 -5.76912,-0.58722 -5.76912,-1.3116z" fill="#000000" stroke="#ffffff" stroke-width="1"/></g></g></svg>