<svg version="1.1" xmlns="http://www.w3.org/2000/svg" xmlns:xlink="http://www.w3.org/1999/xlink" width="77.07838" height="78.27917" viewBox="0,0,77.07838,78.27917"><defs><linearGradient x1="240.00739" y1="141.13081" x2="240.00739" y2="191.63225" gradientUnits="userSpaceOnUse" id="color-1"><stop offset="0" stop-color="#e1ba7d"/><stop offset="1" stop-color="#cecece"/></linearGradient></defs><g transform="translate(-210.438,-140.13081)"><g data-paper-data="{&quot;isPaintingLayer&quot;:true}" fill-rule="nonzero" stroke-linejoin="miter" stroke-miterlimit="10" stroke-dasharray="" stroke-dashoffset="0" style="mix-blend-mode: normal"><g fill="none" stroke="#000000" stroke-width="2" stroke-linecap="round"><g><path d="M230.48426,189.90077v17.89194l-4.90586,6.92591"/><path d="M236.83301,215.58436l-5.77159,-9.23455"/><path d="M231.06142,205.77265l-0.28858,10.38887"/></g><g><path d="M248.18177,191.14923v17.89194l-4.90586,6.92591"/><path d="M254.53052,216.83282l-5.77159,-9.23455"/><path d="M248.75893,207.02111l-0.28858,10.38887"/></g></g><path d="M259.81066,154.37661l25.53678,7.40078l-23.48451,18.15219l-25.53679,-7.40078z" fill="#a5a5a5" stroke="#000000" stroke-width="2" stroke-linecap="butt"/><path d="M268.57678,166.38153c0,13.94559 -12.79095,25.25072 -28.56939,25.25072c-15.77844,0 -28.56939,-11.30513 -28.56939,-25.25072c0,-13.94559 12.79095,-25.25072 28.56939,-25.25072c15.77844,0 28.56939,11.30513 28.56939,25.25072z" fill="url(#color-1)" stroke="#000000" stroke-width="2" stroke-linecap="butt"/><path d="M251.93637,159.31132c0,-1.38071 1.11929,-2.5 2.5,-2.5c1.38071,0 2.5,1.11929 2.5,2.5c0,1.38071 -1.11929,2.5 -2.5,2.5c-1.38071,0 -2.5,-1.11929 -2.5,-2.5z" fill="#000000" stroke="none" stroke-width="0.5" stroke-linecap="butt"/></g></g></svg>