<svg version="1.1" xmlns="http://www.w3.org/2000/svg" xmlns:xlink="http://www.w3.org/1999/xlink" width="47.17442" height="54.97463" viewBox="0,0,47.17442,54.97463"><g transform="translate(-216.41279,-152.51268)"><g data-paper-data="{&quot;isPaintingLayer&quot;:true}" fill-rule="nonzero" stroke-linecap="butt" stroke-linejoin="miter" stroke-miterlimit="10" stroke-dasharray="" stroke-dashoffset="0" style="mix-blend-mode: normal"><path d="M260.58721,155.51268v19.65381h-41.06765v-19.65381z" data-paper-data="{&quot;index&quot;:null}" fill="#ff0000" stroke="#000000" stroke-width="6"/><path d="M260.48045,173.97991c0,0 0,20.68608 0,25.82717c0,2.18852 -1.35058,4.68023 -3.5333,4.68023c-7.82903,0 -26.36381,0 -31.68076,0c-2.77216,0 -5.8536,-3.0422 -5.8536,-5.56025c0,-5.3337 0,-24.94715 0,-24.94715z" data-paper-data="{&quot;index&quot;:null}" fill="#ff0000" stroke="#000000" stroke-width="6"/><path d="M251.787,183.96669c2.26811,0 4.10677,1.83867 4.10677,4.10677c0,2.26811 -1.83867,4.10677 -4.10677,4.10677c-2.26811,0 -4.10677,-1.83867 -4.10677,-4.10677c0,-2.26811 1.83867,-4.10677 4.10677,-4.10677z" data-paper-data="{&quot;index&quot;:null}" fill="#000000" stroke="#ffffff" stroke-width="2"/></g></g></svg>