<svg version="1.1" xmlns="http://www.w3.org/2000/svg" xmlns:xlink="http://www.w3.org/1999/xlink" width="30.91845" height="49.7359" viewBox="0,-0.5,30.91845,49.7359"><g transform="translate(-228.52798,-155.63205)"><g data-paper-data="{&quot;isPaintingLayer&quot;:true}" fill-rule="nonzero" stroke="#000000" stroke-width="1" stroke-linecap="butt" stroke-linejoin="miter" stroke-miterlimit="10" stroke-dasharray="" stroke-dashoffset="0" style="mix-blend-mode: normal"><path d="M251.1681,200.44969v3.91826h-1.26919v-2.04165h-1.71049v2.04164h-1.43538v-2.04164h-1.70994v2.04164h-2.48289v-3.91826h8.60789" fill="#b38a00"/><path d="M238.9071,167.60169c0,1.32268 1.07219,2.39487 2.39487,2.39487c1.32163,0 2.39383,-1.07219 2.39383,-2.39487c0,-1.32268 -1.0722,-2.39486 -2.39383,-2.39486c-1.32268,0 -2.39487,1.07219 -2.39487,2.39487v0zM238.9071,160.09693c0,1.32267 1.07219,2.39487 2.39487,2.39487c1.32163,0 2.39383,-1.0722 2.39383,-2.39487c0,-1.32274 -1.07219,-2.39487 -2.39383,-2.39487c-1.32267,0 -2.39487,1.07214 -2.39487,2.39487zM235.86923,171.50736c0.62204,0 1.21058,-0.1404 1.73561,-0.39094c-0.89396,-0.91811 -1.44584,-2.17317 -1.44583,-3.5577c0,-1.44846 0.60321,-2.75543 1.57217,-3.68295c-0.55706,-0.28978 -1.1901,-0.45382 -1.86354,-0.45382c-2.2329,0 -4.04191,1.81005 -4.04192,4.04246c0.00104,2.23344 1.81055,4.04296 4.0435,4.04296v0zM244.85711,171.1762c0.49203,0.21326 1.03546,0.33171 1.60616,0.33171c2.23296,0 4.04301,-1.81006 4.04301,-4.04246c0,-2.23241 -1.81006,-4.04246 -4.04301,-4.04246c-0.66763,0 -1.29596,0.16142 -1.74765,0.38464c1.01138,0.93174 1.64601,2.26755 1.64601,3.75214c0,1.41337 -0.5754,2.69308 -1.50451,3.61645v0zM243.1251,172.46165c-1.00668,0.31551 -2.6899,0.42608 -3.81759,0l1.88859,1.97044l1.929,-1.97044zM246.50519,161.48769c3.32453,0 6.01969,2.69516 6.01969,6.01969c0,3.32453 -2.69516,6.01969 -6.01969,6.01969c-1.17751,0 -4.11055,2.34034 -5.49037,3.49903c-0.9936,-1.21424 -3.91881,-3.49903 -5.10414,-3.49903c-3.32453,0 -6.0192,-2.69516 -6.0192,-6.01969c0,-3.32453 2.69571,-6.01969 6.0192,-6.01969c0.40609,0 0.80332,0.04033 1.18796,0.11741c-0.16875,-0.47113 -0.26099,-0.97892 -0.26099,-1.50768c0,-2.46663 1.99819,-4.46537 4.46536,-4.46537c2.46614,0 4.46537,1.99874 4.46537,4.46536c0,0.51514 -0.08747,1.01034 -0.24785,1.47151c0.31912,-0.05342 0.64874,-0.08123 0.98467,-0.08123v0z" fill="#b38a00"/><path d="M243.41494,174.68098v29.68697h-4.52459v-29.68697z" fill="#b38a00"/><path d="M243.30486,175.0122c0.42608,0 0.77245,0.32119 0.77245,0.71738v0c0,0.39619 -0.34588,0.71745 -0.77245,0.71744h-4.30449c-0.42657,0 -0.77294,-0.32126 -0.77294,-0.71744v0c0,-0.39619 0.34589,-0.71738 0.77294,-0.71738h4.30449v0z" fill="#b38a00"/><path d="M243.30486,176.61205c0.42608,0 0.77245,0.32126 0.77245,0.71745v0c0,0.39619 -0.34588,0.71738 -0.77245,0.71738h-4.30449c-0.42657,0 -0.77294,-0.32119 -0.77294,-0.71738v0c0,-0.39619 0.34589,-0.71745 0.77294,-0.71745h4.30449v0z" fill="#b38a00"/><path d="M248.49183,195.29157v2.26174h-5.29754v-2.26174h5.29754" fill="#b38a00"/><path d="M255.33531,196.51675l-1.68426,-8.66711" fill="none"/><path d="M255.33531,196.51675l-1.68426,-8.66711" fill="none"/><path d="M259.35101,191.6945l-7.84698,1.52553" fill="none"/><path d="M259.35101,191.6945l-7.84698,1.52553" fill="none"/><path d="M252.66112,195.42677l4.08176,-6.05111" fill="none"/><path d="M252.66112,195.42677l4.08176,-6.05111" fill="none"/><path d="M257.34396,194.51648l-6.64172,-4.48315" fill="none"/><path d="M257.34396,194.51648l-6.64172,-4.48315" fill="none"/><path d="M233.39894,197.04759l-1.73512,6.9598" fill="none"/><path d="M233.39894,197.04759l-1.73512,6.9598" fill="none"/><path d="M236.40533,202.12136l-7.75634,-1.93474" fill="none"/><path d="M236.40533,202.12136l-7.75634,-1.93474" fill="none"/><path d="M230.30233,202.34464l5.41544,-3.25277" fill="none"/><path d="M230.30233,202.34464l5.41544,-3.25277" fill="none"/><path d="M229.96488,197.13353l4.12473,6.87124" fill="none"/><path d="M229.96488,197.13353l4.12473,6.87124" fill="none"/><path d="M234.9139,177.0151l-0.96474,3.86637" fill="none"/><path d="M234.9139,177.0151l-0.96474,3.86637" fill="none"/><path d="M232.39379,178.28587l4.30761,1.07324" fill="none"/><path d="M232.39379,178.28587l4.30761,1.07324" fill="none"/><path d="M233.31294,179.48331l3.007,-1.80688" fill="none"/><path d="M233.31294,179.48331l3.007,-1.80688" fill="none"/><path d="M233.12481,176.58956l2.29114,3.81552" fill="none"/><path d="M233.12481,176.58956l2.29114,3.81552" fill="none"/></g></g></svg>