<svg version="1.1" xmlns="http://www.w3.org/2000/svg" xmlns:xlink="http://www.w3.org/1999/xlink" width="30" height="17.375" viewBox="0,0,30,17.375"><g transform="translate(-225,-171.3125)"><g data-paper-data="{&quot;isPaintingLayer&quot;:true}" fill-rule="nonzero" stroke="#000000" stroke-width="2" stroke-linecap="butt" stroke-linejoin="miter" stroke-miterlimit="10" stroke-dasharray="" stroke-dashoffset="0" style="mix-blend-mode: normal"><path d="M226,187.6875v-15.375h28v15.375z" fill="#d4d4d4"/><path d="M236.6875,179.6875c0,2.10559 -1.81884,3.8125 -4.0625,3.8125c-2.24366,0 -4.0625,-1.70691 -4.0625,-3.8125c0,-2.10559 1.81884,-3.8125 4.0625,-3.8125c2.24366,0 4.0625,1.70691 4.0625,3.8125z" fill="#3e3e3e"/><path d="M250.8125,179.5625c0,2.10558 -1.81885,3.8125 -4.0625,3.8125c-2.24365,0 -4.0625,-1.70692 -4.0625,-3.8125c0,-2.10558 1.81885,-3.8125 4.0625,-3.8125c2.24365,0 4.0625,1.70692 4.0625,3.8125z" fill="#3e3e3e"/></g></g></svg>