<svg version="1.1" xmlns="http://www.w3.org/2000/svg" xmlns:xlink="http://www.w3.org/1999/xlink" width="80.24332" height="78.27917" viewBox="0,0,80.24332,78.27917"><g transform="translate(-210.438,-140.13079)"><g data-paper-data="{&quot;isPaintingLayer&quot;:true}" fill-rule="nonzero" stroke-linejoin="miter" stroke-miterlimit="10" stroke-dasharray="" stroke-dashoffset="0" style="mix-blend-mode: normal"><g><g fill="none" stroke="#000000" stroke-width="2" stroke-linecap="round"><g><path d="M230.48426,189.90076v17.89194l-4.90586,6.92591"/><path d="M231.06142,206.3498l5.77159,9.23455"/><path d="M231.06142,205.77264l-0.28858,10.38887"/></g><g><path d="M248.18177,191.14922v17.89194l-4.90586,6.92591"/><path d="M248.75893,207.59826l5.77159,9.23455"/><path d="M248.75893,207.0211l-0.28858,10.38887"/></g></g><g stroke-linecap="butt"><path d="M266.5338,156.23027l21.95803,14.99145l-27.97236,9.9283l-21.95804,-14.99146z" fill="#ffffff" stroke="#000000" stroke-width="2"/><g><path d="M268.57678,166.38152c0,13.94559 -12.79095,25.25072 -28.56939,25.25072c-15.77844,0 -28.56939,-11.30513 -28.56939,-25.25072c0,-13.94559 12.79095,-25.25072 28.56939,-25.25072c15.77844,0 28.56939,11.30513 28.56939,25.25072z" fill="#ff9b00" stroke="#000000" stroke-width="2"/><path d="M251.93637,159.31131c0,-1.38071 1.11929,-2.5 2.5,-2.5c1.38071,0 2.5,1.11929 2.5,2.5c0,1.38071 -1.11929,2.5 -2.5,2.5c-1.38071,0 -2.5,-1.11929 -2.5,-2.5z" fill="#000000" stroke="none" stroke-width="0.5"/></g></g></g></g></g></svg>