<svg version="1.1" xmlns="http://www.w3.org/2000/svg" xmlns:xlink="http://www.w3.org/1999/xlink" width="49.97858" height="62.14657" viewBox="0,0,49.97858,62.14657"><g transform="translate(-213.60863,-145.34074)"><g data-paper-data="{&quot;isPaintingLayer&quot;:true}" fill-rule="nonzero" stroke-linecap="butt" stroke-linejoin="miter" stroke-miterlimit="10" stroke-dasharray="" stroke-dashoffset="0" style="mix-blend-mode: normal"><path d="M219.51956,204.48731v-19.65381h41.06765v19.65381z" fill="#ff0000" stroke="#000000" stroke-width="6"/><path d="M219.07329,186.32911c0,0 -4.29632,-19.13711 -5.46466,-24.34128c-0.55158,-2.4569 1.78863,-6.1002 4.49347,-6.70744c5.18782,-1.16468 23.27246,-5.22471 30.91135,-6.93965c2.12971,-0.47812 3.9933,1.65723 4.47269,3.7926c1.12615,5.01623 5.65743,25.19992 5.65743,25.19992z" fill="#ff0000" stroke="#000000" stroke-width="6"/><path d="M243.56703,166.38587c-0.49683,-2.21302 0.89442,-4.40979 3.10745,-4.90662c2.21302,-0.49683 4.40979,0.89442 4.90662,3.10745c0.49683,2.21302 -0.89442,4.40979 -3.10745,4.90662c-2.21302,0.49683 -4.40979,-0.89442 -4.90662,-3.10745z" fill="#000000" stroke="#ffffff" stroke-width="2"/></g></g></svg>