<svg version="1.1" xmlns="http://www.w3.org/2000/svg" xmlns:xlink="http://www.w3.org/1999/xlink" width="734.68917" height="420.62356" viewBox="0,0,734.68917,420.62356"><defs><linearGradient x1="109.00739" y1="114.13081" x2="109.00739" y2="164.63225" gradientUnits="userSpaceOnUse" id="color-1"><stop offset="0" stop-color="#e1ba7d"/><stop offset="1" stop-color="#cecece"/></linearGradient></defs><g transform="translate(109.25372,29.04934)"><g data-paper-data="{&quot;isPaintingLayer&quot;:true}" fill-rule="nonzero" stroke-miterlimit="10" stroke-dasharray="" stroke-dashoffset="0" style="mix-blend-mode: normal"><g><path d="M333.105,234.92101l4.206,0.663c3.953,4.066 6.177,13.053 1.464,15.92c-0.342,0.209 -6.795,-0.998 -7.212,-0.858" fill="#faa51f" stroke="#8e5322" stroke-width="1.4" stroke-linecap="round" stroke-linejoin="round"/><path d="M341.23,246.85101c-1.986,8.479 -5.61,11.841 -9.298,10.28c-1.573,-0.65 -2.562,-5.247 1.495,-9.507" fill="#faa51f" stroke="#8e5322" stroke-width="1.4" stroke-linecap="round" stroke-linejoin="round"/><path d="M322.6786,255.52034c0.41102,0.90059 1.3036,2.51568 -2.61572,4.14821c-3.91744,1.63323 -10.16079,-1.65776 -10.84034,-2.12489c-2.60079,-1.61119 -5.84617,-3.78318 -8.56794,-7.36082c-7.928,-10.21632 -0.50117,-21.53483 3.94698,-21.15541c4.4478,0.38036 1.28808,8.27378 3.05521,15.55011c0.80057,3.28857 2.71189,5.60305 4.51699,7.3442c2.47344,2.5243 10.05812,2.79357 10.50482,3.5986z" fill="#faa51f" stroke="none" stroke-width="1" stroke-linecap="butt" stroke-linejoin="miter"/><path d="M306.93873,234.49061c0.05049,3.00753 0.2704,8.42656 0.2704,8.42656c0,0 -3.09392,-2.86371 -5.89103,-2.51906c-2.79641,0.34277 -3.15208,5.01326 -3.88045,3.24705c-0.28403,-1.81277 -0.6861,-4.73912 0.42002,-8.27453c1.2011,-3.50102 4.92855,-6.91299 6.9659,-6.36602c2.0611,0.76932 2.18151,2.73449 2.11515,5.486z" fill="#ffffff" stroke="none" stroke-width="1" stroke-linecap="butt" stroke-linejoin="miter"/><path d="M322.6786,255.52034c0.41102,0.90059 1.3036,2.51568 -2.61572,4.14821c-3.91744,1.63323 -10.16079,-1.65776 -10.84034,-2.12489c-2.60079,-1.61119 -5.84617,-3.78318 -8.56794,-7.36082c-7.928,-10.21632 -0.50117,-21.53483 3.94698,-21.15541c4.4478,0.38036 1.28808,8.27378 3.05521,15.55011c0.80057,3.28857 2.71189,5.60305 4.51699,7.3442c2.47344,2.5243 10.05812,2.79357 10.50482,3.5986z" fill="none" stroke="#8e5322" stroke-width="1.4" stroke-linecap="round" stroke-linejoin="round"/><path d="M335.16566,252.31469c0,0 -2.34628,9.99188 -1.82898,18.81401c0.17797,3.80767 6.59669,7.97784 3.40829,11.60437c-3.40165,2.45216 -6.18922,-2.89009 -8.26252,-3.75603c-1.87657,-0.76059 -2.35387,-1.47626 -1.99087,-3.46563c1.33458,-7.26093 -1.5163,-18.95177 -1.5163,-18.95177" fill="#faa51f" stroke="#8e5322" stroke-width="1.4" stroke-linecap="round" stroke-linejoin="round"/><path d="M336.2,241.80101c0,6.7 1.7,16.5 -10.2,16.5c-11.9,0 -10.8,-9 -10.8,-15.7c0,-6.7 4.1,-8.5 10.8,-8.5c6.7,0 10.2,1 10.2,7.7z" fill="#faa51f" stroke="#8e5322" stroke-width="1.4" stroke-linecap="round" stroke-linejoin="round"/><path d="M333.6,244.70001c0,4.2 0.9,10.5 -5.5,10.5c-6.399,0 -5.899,-5.699 -5.899,-9.899c0,-4.2 2.2,-5.4 5.899,-5.4c3.7,-0.001 5.5,0.6 5.5,4.799z" fill="#ffffff" stroke="none" stroke-width="1" stroke-linecap="butt" stroke-linejoin="miter"/><path d="M316.90314,251.07685c0,0 1.74712,-1.1103 2.78308,-0.76636c1.55752,0.5171 3.07232,1.86304 3.12064,2.57963c0.07181,1.06506 0.54276,3.05335 -0.11191,3.94193c-1.05845,2.73826 -3.38119,5.7725 -4.87315,6.07022c2.23592,1.41949 -0.91884,5.73526 -3.05292,5.60979c-2.23104,-0.1499 -6.39937,-3.39706 -5.88524,-5.84566c0.66413,-0.81637 1.90658,-1.92727 2.90482,-2.57648c1.00011,-0.65042 2.31107,-0.28313 2.44033,-0.58585c1.7982,-4.30985 2.31014,-8.01386 2.39473,-10.54063c0.07474,-2.23282 -0.18422,-3.54637 -0.18422,-3.54637" fill="#faa51f" stroke="#8e5322" stroke-width="1.4" stroke-linecap="round" stroke-linejoin="round"/><path d="M315.83943,261.6856c0,0 1.69612,0.37045 2.30454,1.81615" fill="#faa51f" stroke="#8e5322" stroke-width="1.4" stroke-linecap="round" stroke-linejoin="round"/><path d="M316.72778,251.07323c-0.08469,-0.04745 -1.49169,1.6985 -3.4127,1.88047c-1.84437,0.17471 -4.20601,-1.21391 -4.27508,-1.27269c-3.335,-2.839 0.335,-12.898 6.86,-18.08l7.899,1.4" fill="#faa51f" stroke="#8e5322" stroke-width="1.4" stroke-linecap="round" stroke-linejoin="round"/><path d="M315.32911,249.77946c0,0 1.80589,-5.24445 2.97089,-8.37945" fill="#faa51f" stroke="#8e5322" stroke-width="1.4" stroke-linecap="round" stroke-linejoin="round"/><path d="M314.364,248.20001l1.199,0.301" fill="none" stroke="#8e5322" stroke-width="1.4" stroke-linecap="round" stroke-linejoin="round"/><path d="M328.8,187.7l7.2,-7l2.8,11.2c0,0 6.2,4.601 8.1,7.8c3.1,5.301 3.199,9.6 3.199,9.6c0,0 6.901,2.1 8.101,7.6c1.2,5.5 -3.1,16 -21.299,19.6c-18.2,3.6 -32.801,-1.3 -39.7,-12.4c-6.8,-11 4,-24.2 3.399,-23.4l-2.2,-18.3l12.6,8.2c0,0 4.299,-1.7 8.9,-1.9c1.699,-0.1 4.8,0.1 6.3,0.2z" fill="#faa51f" stroke="none" stroke-width="1" stroke-linecap="butt" stroke-linejoin="miter"/><path d="M349.7,209.801c0,0 6.6,1.6 7.8,7.1c1.5,5.5 -3.401,15.9 -20.6,19c-3.9,0.7 -7.4,1.4 -12.9,1.4c-8.5,0.099 -17.8,-5.2 -17.1,-16.3c0.399,-6.4 8.5,-5.9 8.5,-5.9l7.1,-1.8c0,0 7.1,1.599 11.3,0.7c4.2,-0.9 4.2,-4.2 4.2,-4.2l8.8,-2.601l2.4,2z" fill="#ffffff" stroke="none" stroke-width="1" stroke-linecap="butt" stroke-linejoin="miter"/><path d="M365.2,210.60101c0,0 -1.799,1.6 -4.4,2.5c-2.201,0.8 -6.6,1.5 -6.6,1.5" fill="none" stroke="#8e5322" stroke-width="1.4" stroke-linecap="round" stroke-linejoin="round"/><path d="M364.599,221.80101c0,0 -1.8,0.2 -4.5,-0.101c-2.799,-0.199 -5.399,-1.3 -5.399,-1.3" fill="none" stroke="#8e5322" stroke-width="1.4" stroke-linecap="round" stroke-linejoin="round"/><path d="M308.7,189.10101l5.2,3.6" fill="none" stroke="#8e5322" stroke-width="1.4" stroke-linecap="round" stroke-linejoin="round"/><path d="M328.8,187.7l7.2,-7l2.8,11.2c0,0 6.2,4.601 8.1,7.8c3.1,5.301 3.199,9.6 3.199,9.6c0,0 6.901,2.1 8.101,7.6c1.2,5.5 -3.1,16 -21.299,19.6c-18.2,3.6 -32.801,-1.3 -39.7,-12.4c-6.8,-11 4,-24.2 3.399,-23.4l-2.2,-18.3l12.6,8.2c0,0 4.299,-1.7 8.9,-1.9c1.699,-0.1 4.8,0.1 6.3,0.2z" fill="none" stroke="#8e5322" stroke-width="1.4" stroke-linecap="round" stroke-linejoin="round"/><path d="M296.6,219.60001c0,0 -3.5,0.5 -5.3,0.6c-1.8,0.1 -5.8,-0.3 -5.8,-0.3" fill="none" stroke="#8e5322" stroke-width="1.4" stroke-linecap="round" stroke-linejoin="round"/><path d="M284.701,210.301c0,0 2.2,0.399 6.2,2.2c3.599,1.6 5.899,3.3 5.899,3.3" fill="none" stroke="#8e5322" stroke-width="1.4" stroke-linecap="round" stroke-linejoin="round"/><path d="M344.7,199.801c2.8,4.3 2.899,9.3 0.2,11c-2.7,1.8 -7.2,-0.3 -10,-4.7c-2.801,-4.3 -2.9,-9.3 -0.2,-11c2.7,-1.7 7.2,0.4 10,4.7z" fill="#ffffff" stroke="#8e5322" stroke-width="1.4" stroke-linecap="round" stroke-linejoin="round"/><path d="M344.6,203.40001c0.301,1 -0.199,2 -1.199,2.3c-0.9,0.301 -1.9,-0.3 -2.2,-1.399c-0.3,-1 0.2,-2 1.2,-2.3c0.999,-0.2 1.899,0.399 2.199,1.399" fill="#414142" stroke="none" stroke-width="1" stroke-linecap="butt" stroke-linejoin="miter"/><path d="M321.5,202.90001c2.8,4.3 2.5,9.5 -0.7,11.601c-3.2,2.1 -8.1,0.3 -10.899,-4.101c-2.801,-4.3 -2.5,-9.5 0.699,-11.6c3.2,-1.999 8.1,-0.199 10.9,4.1z" fill="#ffffff" stroke="#8e5322" stroke-width="1.4" stroke-linecap="round" stroke-linejoin="round"/><path d="M321.2,206.801c0,1 -0.8,1.899 -1.7,1.899c-1,0 -1.7,-0.8 -1.7,-1.899c0,-1 0.8,-1.9 1.7,-1.9c0.9,0 1.7,0.799 1.7,1.9" fill="#414142" stroke="none" stroke-width="1" stroke-linecap="butt" stroke-linejoin="miter"/><path d="M332.5,212.80101c1.7,-0.2 4,-1.5 4.3,0.399c0,0.801 -1.6,4.101 -3.399,4.2c-2,0.101 -5.5,-2.399 -5.4,-3.899c0.1,-1.5 2.999,-0.5 4.499,-0.7z" fill="#5f4b43" stroke="#8e5322" stroke-width="1.4" stroke-linecap="round" stroke-linejoin="round"/><path d="M331.299,229.40001c-5.399,1.101 -7.899,-1.2 -7.899,-1.2" fill="#ffffff" stroke="#8e5322" stroke-width="1.4" stroke-linecap="round" stroke-linejoin="round"/><path d="M315.27006,251.79119c2.6951,5.22804 0.12876,8.69693 -1.5636,8.87678c-3.97911,0.45913 -6.51048,-3.78362 -6.03128,-12.48034" fill="#faa51f" stroke="#8e5322" stroke-width="1.4" stroke-linecap="round" stroke-linejoin="round"/></g><path d="M312.51956,339.01269v52.55255h-330.33033v-52.55255z" data-paper-data="{&quot;index&quot;:null}" fill="#c5c5c5" stroke="none" stroke-width="0" stroke-linecap="butt" stroke-linejoin="miter"/><path d="M579.89943,-29.04934v91h-689.15315v-91z" data-paper-data="{&quot;index&quot;:null}" fill="#c5c5c5" stroke="none" stroke-width="0" stroke-linecap="butt" stroke-linejoin="miter"/><path d="M625.43545,339.02167v52.55255h-330.33033v-52.55255z" data-paper-data="{&quot;index&quot;:null}" fill="#c5c5c5" stroke="none" stroke-width="0" stroke-linecap="butt" stroke-linejoin="miter"/><text transform="translate(85.50001,356.04894) scale(0.5,0.5)" font-size="40" xml:space="preserve" fill="#000000" fill-rule="nonzero" stroke="none" stroke-width="1" stroke-linecap="butt" stroke-linejoin="miter" stroke-miterlimit="10" stroke-dasharray="" stroke-dashoffset="0" font-family="Sans Serif" font-weight="normal" text-anchor="start" style="mix-blend-mode: normal"><tspan x="0" dy="0">MMO: The Catverse</tspan></text><g stroke-linejoin="miter"><g fill="none" stroke="#000000" stroke-width="2" stroke-linecap="round"><g><path d="M99.48426,162.90077v17.89194l-4.90586,6.92591"/><path d="M105.83301,188.5844l-5.77159,-9.23455"/><path d="M100.06142,178.77269l-0.28858,10.38887"/></g><g><path d="M117.18177,164.14923v17.89194l-4.90586,6.92591"/><path d="M117.75893,180.59829l5.77159,9.23455"/><path d="M117.75893,180.02111l-0.28858,10.38887"/></g></g><path d="M128.81066,127.37661l25.53678,7.40078l-23.48451,18.15219l-25.53679,-7.40078z" fill="#a5a5a5" stroke="#000000" stroke-width="2" stroke-linecap="butt"/><path d="M137.57678,139.38153c0,13.94559 -12.79095,25.25072 -28.56939,25.25072c-15.77844,0 -28.56939,-11.30513 -28.56939,-25.25072c0,-13.94559 12.79095,-25.25072 28.56939,-25.25072c15.77844,0 28.56939,11.30513 28.56939,25.25072z" fill="url(#color-1)" stroke="#000000" stroke-width="2" stroke-linecap="butt"/><path d="M120.93637,132.31132c0,-1.38071 1.11929,-2.5 2.5,-2.5c1.38071,0 2.5,1.11929 2.5,2.5c0,1.38071 -1.11929,2.5 -2.5,2.5c-1.38071,0 -2.5,-1.11929 -2.5,-2.5z" fill="#000000" stroke="none" stroke-width="0.5" stroke-linecap="butt"/></g><path d="M260.25151,324.75951l-36.42485,-28.63004l36.42485,-30.44367h67.27144v59.07371z" data-paper-data="{&quot;index&quot;:null}" fill="#faa51f" stroke="#000000" stroke-width="8" stroke-linecap="butt" stroke-linejoin="miter"/><g data-paper-data="{&quot;index&quot;:null}"><g><path d="M264.21467,279.11177c0.8028,-0.01535 2.40841,-0.04605 3.29591,0.06054c2.41352,0.22156 4.62645,1.26034 4.62645,1.26034l6.84365,-3.9404l-1.6611,9.51447c-0.29645,-0.42677 4.95914,6.81387 1.08049,12.35526c-4.00059,5.62609 -11.75313,7.80264 -21.17963,5.35735c-9.43581,-2.39363 -11.40715,-8.0291 -10.57592,-10.86612c0.77956,-2.84633 4.45897,-3.73007 4.45897,-3.73007c0,0 0.19363,-2.25855 1.95471,-4.92802c1.09137,-1.61677 4.47759,-3.83339 4.47759,-3.83339l1.79369,-5.81041l3.56486,3.89585z" fill="#faa51f" stroke="none" stroke-width="1" stroke-linecap="butt" stroke-linejoin="miter"/><path d="M251.54468,289.04265l1.29892,-0.99267l4.5613,1.62195c0,0 -0.10054,1.74196 2.08354,2.34886c2.18408,0.6069 5.92957,-0.05159 5.92957,-0.05159l3.68729,1.14445c0,0 4.2723,-0.0302 4.30577,3.33599c0.00923,5.8686 -5.02914,8.37422 -9.45223,8.05723c-2.90638,-0.15036 -4.6865,-0.63113 -6.73422,-1.10679c-8.94715,-2.14557 -11.19539,-7.72426 -10.26085,-10.54267c0.77956,-2.84633 4.30911,-3.49039 4.30911,-3.49039z" fill="#ffffff" stroke="none" stroke-width="1" stroke-linecap="butt" stroke-linejoin="miter"/><path d="M248.76486,291.7419c0,0 -2.30602,-0.5222 -3.39596,-0.98528c-1.33893,-0.56128 -2.25109,-1.41901 -2.25109,-1.41901" fill="none" stroke="#8e5322" stroke-width="1.4" stroke-linecap="round" stroke-linejoin="round"/><path d="M248.32827,294.75667c0,0 -1.37012,0.49982 -2.87241,0.54913c-1.39897,0.06793 -2.38048,-0.10893 -2.38048,-0.10893" fill="none" stroke="#8e5322" stroke-width="1.4" stroke-linecap="round" stroke-linejoin="round"/><path d="M270.51883,281.42113l2.81891,-1.73216" fill="none" stroke="#8e5322" stroke-width="1.4" stroke-linecap="round" stroke-linejoin="round"/><path d="M264.21467,279.11177c0.8028,-0.01535 2.40841,-0.04605 3.29591,0.06054c2.41352,0.22156 4.62645,1.26034 4.62645,1.26034l6.84365,-3.9404l-1.6611,9.51447c-0.29645,-0.42677 4.95914,6.81387 1.08049,12.35526c-4.00059,5.62609 -11.75313,7.80264 -21.17963,5.35735c-9.43581,-2.39363 -11.40715,-8.0291 -10.57592,-10.86612c0.77956,-2.84633 4.45897,-3.73007 4.45897,-3.73007c0,0 0.19363,-2.25855 1.95471,-4.92802c1.09137,-1.61677 4.47759,-3.83339 4.47759,-3.83339l1.79369,-5.81041l3.56486,3.89585z" fill="none" stroke="#8e5322" stroke-width="1.4" stroke-linecap="round" stroke-linejoin="round"/><path d="M284.59446,296.54471c0,0 -2.09846,0.10189 -3.03762,-0.014c-0.93916,-0.11589 -2.74721,-0.44169 -2.74721,-0.44169" fill="none" stroke="#8e5322" stroke-width="1.4" stroke-linecap="round" stroke-linejoin="round"/><path d="M278.80173,294.06084c0,0 1.271,-0.83769 3.21356,-1.55437c2.12546,-0.84374 3.3178,-0.9489 3.3178,-0.9489" fill="none" stroke="#8e5322" stroke-width="1.4" stroke-linecap="round" stroke-linejoin="round"/></g><g><path d="M259.57605,282.06278c1.32543,0.9322 1.16996,3.57097 -0.44638,5.73317c-1.62565,2.21385 -4.04663,3.21767 -5.4051,2.17285c-1.32543,-0.9322 -1.16996,-3.57097 0.44638,-5.73317c1.61634,-2.16219 4.02801,-3.11436 5.4051,-2.17285z" fill="#ffffff" stroke="#8e5322" stroke-width="1.4" stroke-linecap="round" stroke-linejoin="round"/><path d="M254.14579,286.15117c0.14474,-0.50727 0.67483,-0.7851 1.19141,-0.69202c0.55894,0.15406 0.7758,0.72649 0.5794,1.22446c-0.21501,0.60128 -0.7451,0.87911 -1.19141,0.69202c-0.55894,-0.15406 -0.7758,-0.72649 -0.5794,-1.22446" fill="#414142" stroke="none" stroke-width="1" stroke-linecap="butt" stroke-linejoin="miter"/></g><g><path d="M272.05459,284.73802c1.59814,1.19469 1.64,3.92235 0.02366,6.08455c-1.57398,2.22316 -4.22534,3.02546 -5.82348,1.83078c-1.59814,-1.19469 -1.64,-3.92235 -0.02366,-6.08455c1.61633,-2.16219 4.21603,-2.9738 5.82348,-1.83078z" fill="#ffffff" stroke="#8e5322" stroke-width="1.4" stroke-linecap="round" stroke-linejoin="round"/><path d="M266.29065,288.6063c0.05074,-0.57755 0.49613,-0.97732 0.97036,-0.9452c0.47424,0.03212 0.8647,0.52917 0.82327,1.05506c-0.05074,0.57755 -0.44447,0.98663 -0.97036,0.9452c-0.47424,-0.03212 -0.8647,-0.52917 -0.82327,-1.05506" fill="#414142" stroke="none" stroke-width="1" stroke-linecap="butt" stroke-linejoin="miter"/></g><path d="M260.17769,291.4516c0.77487,0.13963 2.33301,-0.21963 2.35767,0.53151c0.02465,0.75115 -1.90767,2.00303 -2.95015,1.86852c-0.93916,-0.11589 -1.68377,-1.90347 -1.66096,-2.32605c0.17686,-0.98151 1.37524,-0.23221 2.25343,-0.07397z" fill="#5f4b43" stroke="#8e5322" stroke-width="1.4" stroke-linecap="round" stroke-linejoin="round"/><path d="M264.49596,299.7501c0,0 -1.37851,1.13833 -4.18249,0.41973" fill="#ffffff" stroke="#8e5322" stroke-width="1.4" stroke-linecap="round" stroke-linejoin="round"/></g><path d="M312.61981,313.6835c6.32466,0 11.45181,5.03876 11.45181,11.25437c0,6.21561 -5.12715,11.25437 -11.45181,11.25437c-6.32466,0 -11.45181,-5.03876 -11.45181,-11.25437c0,-6.21561 5.12715,-11.25437 11.45181,-11.25437z" data-paper-data="{&quot;index&quot;:null}" fill="#a3a3a3" stroke="#000000" stroke-width="8" stroke-linecap="butt" stroke-linejoin="miter"/><path d="M265.233,313.6835c6.32466,0 11.45181,5.03876 11.45181,11.25437c0,6.21561 -5.12715,11.25437 -11.45181,11.25437c-6.32466,0 -11.45182,-5.03876 -11.45182,-11.25437c0,-6.21561 5.12716,-11.25437 11.45182,-11.25437z" data-paper-data="{&quot;index&quot;:null}" fill="#a3a3a3" stroke="#000000" stroke-width="8" stroke-linecap="butt" stroke-linejoin="miter"/><path d="M81.46314,247.53685v-59.07371h59.07371v59.07371z" fill="#faa51f" stroke="#000000" stroke-width="8" stroke-linecap="butt" stroke-linejoin="miter"/><path d="M87.59213,225.35464v-15.54176h15.99887v15.54176z" fill="#000000" stroke="#ffffff" stroke-width="4.5" stroke-linecap="butt" stroke-linejoin="miter"/><path d="M117.94927,225.81175v-15.99887h16.45597v15.99887z" fill="#000000" stroke="#ffffff" stroke-width="4.5" stroke-linecap="butt" stroke-linejoin="miter"/></g></g></svg>