<svg version="1.1" xmlns="http://www.w3.org/2000/svg" xmlns:xlink="http://www.w3.org/1999/xlink" width="25.37359" height="26.10306" viewBox="0,0,25.37359,26.10306"><defs><linearGradient x1="233.65108" y1="180.92204" x2="231.58894" y2="180.92204" gradientUnits="userSpaceOnUse" id="color-1"><stop offset="0" stop-color="#ffe400"/><stop offset="1" stop-color="#ffffff"/></linearGradient></defs><g transform="translate(-227.3132,-166.97945)"><g data-paper-data="{&quot;isPaintingLayer&quot;:true}" fill-rule="nonzero" stroke-width="1" stroke-linecap="butt" stroke-linejoin="miter" stroke-miterlimit="10" stroke-dasharray="" stroke-dashoffset="0" style="mix-blend-mode: normal"><g stroke="#000000"><path d="M250.95942,181.23213c0,5.69106 -4.90676,10.30596 -10.96059,10.30596c-6.05383,0 -10.9602,-4.61294 -10.9602,-10.30596c0,-5.69106 4.90598,-8.33464 10.9602,-8.33464c6.05344,-0.00039 10.96059,2.64397 10.96059,8.33464z" fill="#ec1c2c"/><path d="M252.18679,181.12205c0,6.32923 -5.45601,11.46047 -12.18718,11.46047c-6.73,0 -12.1864,-5.13124 -12.1864,-11.46047c0,-5.57784 4.23921,-8.08901 9.85231,-8.6077c0,0 1.77388,-0.22722 3.5791,-0.07404c6.14432,0.28598 10.94218,2.74896 10.94218,8.68174zM250.32751,181.29011c0,-4.93693 -3.92032,-7.43712 -8.99044,-7.80381c0,0 -3.21515,0.04505 -3.3127,0.05641c-4.7579,0.52535 -8.34992,3.02045 -8.34992,7.74661c0,5.36159 4.62196,9.70971 10.32555,9.70971c5.70321,0 10.32516,-4.34733 10.32751,-9.70893z" fill="#231f20"/><path d="M250.3773,181.28551c-0.00235,5.3616 -4.67409,9.76352 -10.3773,9.76352c-5.70359,0 -10.37533,-4.40272 -10.37533,-9.76431c0,-4.72616 3.63073,-7.26542 8.38863,-7.79077c0.09755,-0.01136 3.33132,-0.05708 3.33132,-0.05708c5.07012,0.36669 9.03269,2.91172 9.03269,7.84865z" data-paper-data="{&quot;noHover&quot;:false,&quot;origItem&quot;:[&quot;Path&quot;,{&quot;applyMatrix&quot;:true,&quot;segments&quot;:[[[250.32751,181.29011],[0,0],[0,-4.93693]],[[241.33707,173.4863],[5.07012,0.36669],[0,0]],[[238.02437,173.54271],[0.09755,-0.01136],[-4.7579,0.52535]],[[229.67445,181.28932],[0,-4.72616],[0,5.36159]],[[240,190.99903],[-5.70359,0],[5.70321,0]],[[250.32751,181.2901],[-0.00235,5.3616],[0,0]]],&quot;closed&quot;:true,&quot;fillColor&quot;:[0,0,0,1]}]}" fill="#ffe400"/></g><path d="M233.27559,180.92184c0,1.34412 0.87062,2.4336 -0.03953,2.4336c-0.91015,0 -1.64712,-1.08948 -1.64712,-2.4336c0,-1.34373 0.73697,-2.43321 1.64712,-2.43321c0.91015,0 0.03953,1.08987 0.03953,2.43321z" fill="url(#color-1)" stroke="none"/><g stroke="#000000"><path d="M242.74186,175.66719c-1.39779,0.07091 -2.73682,0.10617 -4.13735,0.26326c-0.93513,0.10499 -1.83617,0.11322 -2.52879,-0.59312c-0.15043,-0.15474 0.04623,-0.42153 0.23427,-0.30283c0.46306,0.29029 0.92964,0.40782 1.39897,0.43054c0.03056,0.02507 1.67437,-0.19196 2.42498,-0.43015c0.90574,-0.24681 1.81227,-0.45052 2.71449,-0.15239c0.43133,0.1426 0.34788,0.76079 -0.10656,0.78469z" fill="#231f20"/><g><path d="M236.49568,169.2506c0.39998,-0.23897 0.79879,-0.47873 1.19839,-0.71809c0.28755,0.4419 0.57667,0.87323 0.80859,1.3641c0.84698,1.78798 0.6605,3.67664 0.63621,5.56766c-0.14691,0.03487 -0.38275,0.05994 -0.52809,0.08579c0.10107,-2.40853 -0.47207,-4.61647 -2.1151,-6.29946z" fill="#99661d"/><path d="M240.0924,174.63805c0,0 -0.0901,0.73494 -0.09833,0.87362c0,0 -1.47732,0.44034 -2.05673,0.22017l-0.01802,-0.63034c0.01175,-1.2595 -0.38,-2.61224 -0.61193,-3.03573c-0.11087,-0.20215 -0.55747,-1.35783 -1.91961,-2.56875c-0.23349,-0.20646 -0.15474,-0.59351 0.09481,-0.74356c0.70791,-0.42467 1.41385,-0.84933 2.12098,-1.274c0.22722,-0.13594 0.49557,-0.03447 0.64953,0.17041c2.16564,2.88255 1.90551,6.69004 1.8393,6.98817zM239.09891,174.91776c0.04388,-1.74019 0.19196,-3.35736 -0.59625,-5.02116c-0.23192,-0.49087 -0.52104,-0.9222 -0.80859,-1.3641c-0.39959,0.23936 -0.7984,0.47912 -1.19839,0.71809c1.55214,1.58975 2.18601,3.51367 2.16642,5.75218v0.4513l0.43446,-0.05524z" fill="#231f20"/></g></g></g></g></svg>