<svg version="1.1" xmlns="http://www.w3.org/2000/svg" xmlns:xlink="http://www.w3.org/1999/xlink" width="44.56567" height="52.53321" viewBox="0,0,44.56567,52.53321"><g transform="translate(-217.71717,-153.55421)"><g data-paper-data="{&quot;isPaintingLayer&quot;:true}" fill="#000000" fill-rule="nonzero" stroke="#000000" stroke-miterlimit="10" stroke-dasharray="" stroke-dashoffset="0" style="mix-blend-mode: normal"><path d="M244.37266,183.59303l2.25537,0.35552c2.1197,2.1803 3.31227,6.99936 0.78504,8.53672c-0.18339,0.11207 -3.64366,-0.53515 -3.86726,-0.46008" stroke-width="1.4" stroke-linecap="round" stroke-linejoin="round"/><path d="M248.72949,189.99021c-1.06495,4.54666 -3.00823,6.34945 -4.98583,5.5124c-0.84348,-0.34855 -1.37381,-2.81358 0.80166,-5.0979" stroke-width="1.4" stroke-linecap="round" stroke-linejoin="round"/><path d="M238.47149,191.78549c0.37536,0.37536 1.12661,1.01937 -0.53623,2.57442c-1.66176,1.55506 -5.41535,1.07245 -5.84433,0.96521c-1.60868,-0.32174 -3.64634,-0.80434 -5.68453,-2.09128c-5.89849,-3.6458 -4.28981,-10.72452 -1.98404,-11.36799c2.30577,-0.64294 2.19853,3.91499 4.45068,7.23905c1.01883,1.50197 2.41302,2.30631 3.64634,2.84253c1.71592,0.80434 5.57675,-0.4826 5.95211,-0.16194z" stroke-width="1" stroke-linecap="butt" stroke-linejoin="miter"/><path d="M226.62089,184.17215c0.58931,1.50143 1.71592,4.18256 1.71592,4.18256c0,0 -2.09128,-0.8585 -3.43185,-0.16087c-1.34057,0.69656 -0.64347,3.10958 -1.34057,2.35886c-0.4826,-0.85743 -1.23332,-2.25215 -1.34057,-4.23565c-0.05309,-1.98404 1.1797,-4.39705 2.30577,-4.5043c1.1797,0 1.60868,0.96467 2.09128,2.35939z" stroke-width="1" stroke-linecap="butt" stroke-linejoin="miter"/><path d="M238.47149,191.78549c0.37536,0.37536 1.12661,1.01937 -0.53623,2.57442c-1.66176,1.55506 -5.41535,1.07245 -5.84433,0.96521c-1.60868,-0.32174 -3.64634,-0.80434 -5.68453,-2.09128c-5.89849,-3.6458 -4.28981,-10.72452 -1.98404,-11.36799c2.30577,-0.64294 2.19853,3.91499 4.45068,7.23905c1.01883,1.50197 2.41302,2.30631 3.64634,2.84253c1.71592,0.80434 5.57675,-0.4826 5.95211,-0.16194z" stroke-width="1.4" stroke-linecap="round" stroke-linejoin="round"/><path d="M245.60329,193.12659c0,0 -0.91158,2.94924 -0.4826,7.66857c0.16087,2.03766 3.96807,-0.26811 3.69996,3.69942c-0.10725,1.12661 -5.04053,1.01883 -6.1666,0.59038c-1.01883,-0.37536 -1.28694,-0.75072 -1.12661,-1.82317c0.59038,-3.91445 -1.39419,-8.41875 -1.39419,-8.41875" stroke-width="1.4" stroke-linecap="round" stroke-linejoin="round"/><path d="M244.69171,201.81399c0.80434,-0.16087 1.50143,-0.05362 1.50143,-0.05362" stroke-width="1.4" stroke-linecap="round" stroke-linejoin="round"/><path d="M246.03228,187.28226c0,3.59272 0.91158,8.84773 -5.46951,8.84773c-6.38109,0 -5.79124,-4.82604 -5.79124,-8.41875c0,-3.59272 2.19853,-4.55792 5.79124,-4.55792c3.59272,0 5.46951,0.53623 5.46951,4.12894z" stroke-width="1.4" stroke-linecap="round" stroke-linejoin="round"/><path d="M244.63809,188.83678c0,2.25215 0.4826,5.63037 -2.94924,5.63037c-3.43131,0 -3.1632,-3.05595 -3.1632,-5.3081c0,-2.25215 1.1797,-2.89562 3.1632,-2.89562c1.98404,-0.00054 2.94924,0.32174 2.94924,2.57335z" stroke-width="1" stroke-linecap="butt" stroke-linejoin="miter"/><path d="M240.18687,196.28979c0,0 -0.80434,4.87966 -0.64347,7.13181c0.10725,1.12661 -0.3212,1.71646 -1.44727,1.93095c-1.1797,0.21449 -5.25502,0.32174 -5.30864,-1.01883c-0.21449,-4.07478 2.78838,-1.55506 3.11011,-3.59272c0.69709,-4.66517 -0.69709,-7.61441 -0.69709,-7.61441" stroke-width="1.4" stroke-linecap="round" stroke-linejoin="round"/><path d="M234.61066,201.70621c0,0 0.85796,-0.10671 1.60868,0.10725" stroke-width="1.4" stroke-linecap="round" stroke-linejoin="round"/><path d="M235.70992,191.59888c-0.08901,-0.04987 -4.16594,1.04564 -4.24155,0.98129c-1.78831,-1.52235 0.17964,-6.91624 3.67851,-9.69497l4.23565,0.75072" stroke-width="1.4" stroke-linecap="round" stroke-linejoin="round"/><path d="M236.43383,187.06724c-0.6247,1.68107 -1.65265,3.71873 -1.65265,3.71873" stroke-width="1.4" stroke-linecap="round" stroke-linejoin="round"/><path d="M234.32324,190.71358l0.64294,0.1614" stroke-width="1.4" stroke-linecap="round" stroke-linejoin="round"/><path d="M242.0642,158.27189l3.86083,-3.75358l1.50143,6.00573c0,0 3.3246,2.46718 4.34343,4.18256c1.6623,2.84253 1.71539,5.14777 1.71539,5.14777c0,0 3.7005,1.12607 4.34397,4.07532c0.64347,2.94924 -1.6623,8.57962 -11.42108,10.51003c-9.75932,1.93041 -17.58875,-0.69709 -21.28818,-6.6492c-3.64634,-5.89849 2.1449,-12.97667 1.82263,-12.54769l-1.1797,-9.81294l6.75645,4.39705c0,0 2.30524,-0.91158 4.77241,-1.01883c0.91105,-0.05362 2.57389,0.05362 3.37822,0.10725z" stroke-width="1" stroke-linecap="butt" stroke-linejoin="miter"/><path d="M253.27133,170.12303c0,0 3.53909,0.85796 4.18256,3.80721c0.80434,2.94924 -1.82371,8.526 -11.04626,10.1883c-2.09128,0.37536 -3.96807,0.75072 -6.91732,0.75072c-4.55792,0.05309 -9.54482,-2.78838 -9.16947,-8.74049c0.21395,-3.43185 4.55792,-3.16373 4.55792,-3.16373l3.80721,-0.96521c0,0 3.80721,0.85743 6.05936,0.37536c2.25215,-0.4826 2.25215,-2.25215 2.25215,-2.25215l4.71879,-1.39472l1.28694,1.07245z" stroke-width="1" stroke-linecap="butt" stroke-linejoin="miter"/><path d="M261.58283,170.55201c0,0 -0.96467,0.85796 -2.35939,1.34057c-1.18023,0.42898 -3.53909,0.80434 -3.53909,0.80434" stroke-width="1.4" stroke-linecap="round" stroke-linejoin="round"/><path d="M261.26056,176.55774c0,0 -0.96521,0.10725 -2.41302,-0.05416c-1.5009,-0.10671 -2.89508,-0.69709 -2.89508,-0.69709" stroke-width="1.4" stroke-linecap="round" stroke-linejoin="round"/><path d="M231.28606,159.02315l2.78838,1.93041" stroke-width="1.4" stroke-linecap="round" stroke-linejoin="round"/><path d="M242.0642,158.27189l3.86083,-3.75358l1.50143,6.00573c0,0 3.3246,2.46718 4.34343,4.18256c1.6623,2.84253 1.71539,5.14777 1.71539,5.14777c0,0 3.7005,1.12607 4.34397,4.07532c0.64347,2.94924 -1.6623,8.57962 -11.42108,10.51003c-9.75932,1.93041 -17.58875,-0.69709 -21.28818,-6.6492c-3.64634,-5.89849 2.1449,-12.97667 1.82263,-12.54769l-1.1797,-9.81294l6.75645,4.39705c0,0 2.30524,-0.91158 4.77241,-1.01883c0.91105,-0.05362 2.57389,0.05362 3.37822,0.10725z" stroke-width="1.4" stroke-linecap="round" stroke-linejoin="round"/><path d="M224.79772,175.37751c0,0 -1.87679,0.26811 -2.842,0.32174c-0.96521,0.05362 -3.11011,-0.16087 -3.11011,-0.16087" stroke-width="1.4" stroke-linecap="round" stroke-linejoin="round"/><path d="M218.41717,170.39114c0,0 1.1797,0.21395 3.3246,1.1797c1.92988,0.85796 3.1632,1.76955 3.1632,1.76955" stroke-width="1.4" stroke-linecap="round" stroke-linejoin="round"/><path d="M250.5902,164.76077c1.50143,2.30577 1.55452,4.9869 0.10725,5.89849c-1.44781,0.96521 -3.86083,-0.16087 -5.36226,-2.52026c-1.50197,-2.30577 -1.55506,-4.9869 -0.10725,-5.89849c1.44781,-0.91158 3.86083,0.21449 5.36226,2.52026z" stroke-width="1.4" stroke-linecap="round" stroke-linejoin="round"/><path d="M250.53658,166.69064c0.1614,0.53623 -0.10671,1.07245 -0.64294,1.23332c-0.4826,0.1614 -1.01883,-0.16087 -1.1797,-0.75018c-0.16087,-0.53623 0.10725,-1.07245 0.64347,-1.23332c0.53569,-0.10725 1.01829,0.21395 1.17916,0.75018" stroke-width="1" stroke-linecap="butt" stroke-linejoin="miter"/><path d="M238.14975,166.42253c1.50143,2.30577 1.34057,5.09415 -0.37536,6.22076c-1.71592,1.12607 -4.34343,0.16087 -5.84433,-2.19906c-1.50197,-2.30577 -1.34057,-5.09415 0.37482,-6.22022c1.71592,-1.07192 4.34343,-0.10671 5.84486,2.19853z" stroke-width="1.4" stroke-linecap="round" stroke-linejoin="round"/><path d="M237.98888,168.51435c0,0.53623 -0.42898,1.01829 -0.91158,1.01829c-0.53623,0 -0.91158,-0.42898 -0.91158,-1.01829c0,-0.53623 0.42898,-1.01883 0.91158,-1.01883c0.4826,0 0.91158,0.42844 0.91158,1.01883" stroke-width="1" stroke-linecap="butt" stroke-linejoin="miter"/><path d="M244.04824,171.73171c0.91158,-0.10725 2.1449,-0.80434 2.30577,0.21395c0,0.42952 -0.85796,2.19906 -1.82263,2.25215c-1.07245,0.05416 -2.94924,-1.28641 -2.89562,-2.09075c0.05362,-0.80434 1.60814,-0.26811 2.41248,-0.37536z" stroke-width="1.4" stroke-linecap="round" stroke-linejoin="round"/><path d="M243.40423,180.63252c-2.89508,0.59038 -4.23565,-0.64347 -4.23565,-0.64347" stroke-width="1.4" stroke-linecap="round" stroke-linejoin="round"/><path d="M235.37854,191.15596c2.76639,1.51484 2.66665,3.82651 1.96849,4.41421c-1.63066,1.39794 -4.02867,0.27187 -6.42506,-3.73696" stroke-width="1.4" stroke-linecap="round" stroke-linejoin="round"/></g></g></svg>