<svg version="1.1" xmlns="http://www.w3.org/2000/svg" xmlns:xlink="http://www.w3.org/1999/xlink" width="76.71446" height="53.12229" viewBox="0,0,76.71446,53.12229"><g transform="translate(-202.81852,-153.43886)"><g data-paper-data="{&quot;isPaintingLayer&quot;:true}" fill-rule="nonzero" stroke="#000000" stroke-width="8" stroke-linecap="butt" stroke-linejoin="miter" stroke-miterlimit="10" stroke-dasharray="" stroke-dashoffset="0" style="mix-blend-mode: normal"><path d="M206.81852,195.24451v-37.80565h43.05199l23.31097,19.48317l-23.31097,18.32249z" fill="#faa51f"/><path d="M223.68501,195.35864c0,3.97783 -3.28124,7.20251 -7.32886,7.20251c-4.04762,0 -7.32886,-3.22468 -7.32886,-7.20251c0,-3.97783 3.28124,-7.20251 7.32886,-7.20251c4.04762,0 7.32886,3.22468 7.32886,7.20251z" fill="#a3a3a3"/><path d="M254.01136,195.35864c0,3.97783 -3.28125,7.20251 -7.32887,7.20251c-4.04762,0 -7.32886,-3.22468 -7.32886,-7.20251c0,-3.97783 3.28124,-7.20251 7.32886,-7.20251c4.04762,0 7.32887,3.22468 7.32887,7.20251z" fill="#a3a3a3"/></g></g></svg>