<svg version="1.1" xmlns="http://www.w3.org/2000/svg" xmlns:xlink="http://www.w3.org/1999/xlink" width="696.6967" height="636.14114" viewBox="0,0,696.6967,636.14114"><defs><linearGradient x1="167.10656" y1="76.03169" x2="167.5227" y2="125.64815" gradientUnits="userSpaceOnUse" id="color-1"><stop offset="0" stop-color="#82ffff"/><stop offset="1" stop-color="#82ffff" stop-opacity="0"/></linearGradient><linearGradient x1="166.70655" y1="76.83169" x2="167.1227" y2="126.44815" gradientUnits="userSpaceOnUse" id="color-2"><stop offset="0" stop-color="#82ffff" stop-opacity="0"/><stop offset="1" stop-color="#82ffff"/></linearGradient><linearGradient x1="281.71256" y1="75.60388" x2="282.12871" y2="134.13073" gradientUnits="userSpaceOnUse" id="color-3"><stop offset="0" stop-color="#82ffff"/><stop offset="1" stop-color="#82ffff" stop-opacity="0"/></linearGradient><linearGradient x1="281.31256" y1="76.54754" x2="281.72871" y2="135.0744" gradientUnits="userSpaceOnUse" id="color-4"><stop offset="0" stop-color="#82ffff" stop-opacity="0"/><stop offset="1" stop-color="#82ffff"/></linearGradient><linearGradient x1="386.68703" y1="77.13166" x2="387.10318" y2="126.75703" gradientUnits="userSpaceOnUse" id="color-5"><stop offset="0" stop-color="#82ffff"/><stop offset="1" stop-color="#82ffff" stop-opacity="0"/></linearGradient><linearGradient x1="386.28703" y1="77.9318" x2="386.70318" y2="127.55718" gradientUnits="userSpaceOnUse" id="color-6"><stop offset="0" stop-color="#82ffff" stop-opacity="0"/><stop offset="1" stop-color="#82ffff"/></linearGradient><linearGradient x1="62.84469" y1="184.89115" x2="112.46537" y2="185.69039" gradientUnits="userSpaceOnUse" id="color-7"><stop offset="0" stop-color="#82ffff"/><stop offset="1" stop-color="#82ffff" stop-opacity="0"/></linearGradient><linearGradient x1="63.6479" y1="184.49734" x2="113.26858" y2="185.29658" gradientUnits="userSpaceOnUse" id="color-8"><stop offset="0" stop-color="#82ffff" stop-opacity="0"/><stop offset="1" stop-color="#82ffff"/></linearGradient><linearGradient x1="180.31842" y1="300.78626" x2="180.75422" y2="251.16106" gradientUnits="userSpaceOnUse" id="color-9"><stop offset="0" stop-color="#82ffff"/><stop offset="1" stop-color="#82ffff" stop-opacity="0"/></linearGradient><linearGradient x1="179.91874" y1="299.98597" x2="180.35454" y2="250.36076" gradientUnits="userSpaceOnUse" id="color-10"><stop offset="0" stop-color="#82ffff" stop-opacity="0"/><stop offset="1" stop-color="#82ffff"/></linearGradient></defs><g transform="translate(193.69218,72.32658)"><g data-paper-data="{&quot;isPaintingLayer&quot;:true}" fill-rule="nonzero" stroke-linecap="butt" stroke-linejoin="miter" stroke-miterlimit="10" stroke-dasharray="" stroke-dashoffset="0" style="mix-blend-mode: normal"><g><path d="M187.23692,76.73901l-0.1854,19.65294l-41.06582,-0.38741l0.1854,-19.65293z" fill="#a0f2ff" stroke="#000000" stroke-width="6"/><path d="M187.16948,95.20642c0,0 -0.18502,19.61258 -0.23534,24.94604c-0.02375,2.51794 -3.13376,5.53094 -5.90579,5.50478c-5.31671,-0.05016 -23.85067,-0.22501 -31.67935,-0.29886c-2.18263,-0.02059 -3.50964,-2.52493 -3.489,-4.71335c0.0485,-5.14086 0.24364,-25.82602 0.24364,-25.82602z" fill="#ffffa7" stroke="#000000" stroke-width="6"/><path d="M173.10206,115.17576c-0.04067,4.31136 -3.56869,7.77345 -7.88007,7.73278c-4.31135,-0.04067 -7.77345,-3.56869 -7.73278,-7.88007c0.04067,-4.31136 3.56869,-7.77345 7.88007,-7.73278c4.31135,0.04067 7.77345,3.56869 7.73278,7.88007z" fill="#000000" stroke="#ffffff" stroke-width="4"/><path d="M187.76602,76.50676c0,0 0.07964,31.55635 0.1013,40.13783c0.01022,4.05133 -3.05902,8.92131 -5.83133,8.89913c-5.31723,-0.04254 -23.85299,-0.19084 -31.68243,-0.25348c-2.18284,-0.01747 -3.54361,-4.03721 -3.55249,-7.55835c-0.02087,-8.27157 -0.10488,-41.55371 -0.10488,-41.55371z" fill="url(#color-1)" stroke="#000000" stroke-width="6"/><path d="M187.36601,77.30676c0,0 0.07964,31.55636 0.1013,40.13783c0.01022,4.05133 -3.05903,8.92131 -5.83133,8.89913c-5.31723,-0.04253 -23.85299,-0.19085 -31.68243,-0.25349c-2.18284,-0.01747 -3.54361,-4.0372 -3.55249,-7.55835c-0.02087,-8.27157 -0.10487,-41.55371 -0.10487,-41.55371z" fill="url(#color-2)" stroke="#000000" stroke-width="6"/></g><g><path d="M301.84293,76.43822l-0.1854,23.18231l-41.06583,-0.45698l0.18541,-23.18231z" fill="#a0f2ff" stroke="#000000" stroke-width="6"/><path d="M301.77549,98.22211c0,0 -0.18502,23.13471 -0.23534,29.42598c-0.02376,2.97013 -3.13376,6.52421 -5.90579,6.49336c-5.31671,-0.05916 -23.85067,-0.26541 -31.67935,-0.35253c-2.18262,-0.02429 -3.50964,-2.97836 -3.48899,-5.5598c0.0485,-6.06408 0.24364,-30.464 0.24364,-30.464z" fill="#ffffa7" stroke="#000000" stroke-width="6"/><path d="M287.70807,121.77765c-0.04067,5.08561 -3.56869,9.16945 -7.88007,9.12147c-4.31135,-0.04798 -7.77345,-4.20957 -7.73278,-9.29521c0.04068,-5.08561 3.56869,-9.16945 7.88007,-9.12147c4.31135,0.04798 7.77345,4.20957 7.73278,9.29521z" fill="#000000" stroke="#ffffff" stroke-width="4"/><path d="M302.37202,76.16427c0,0 0.07965,37.22341 0.10131,47.34599c0.01022,4.77889 -3.05903,10.52345 -5.83133,10.49728c-5.31723,-0.05017 -23.85299,-0.22512 -31.68243,-0.29901c-2.18284,-0.0206 -3.54361,-4.76223 -3.55249,-8.91572c-0.02088,-9.75702 -0.10487,-49.01614 -0.10487,-49.01614z" fill="url(#color-3)" stroke="#000000" stroke-width="6"/><path d="M301.97202,77.10794c0,0 0.07964,37.22341 0.1013,47.34599c0.01022,4.77889 -3.05903,10.52345 -5.83133,10.49728c-5.31723,-0.05017 -23.85299,-0.22512 -31.68243,-0.29901c-2.18284,-0.0206 -3.54361,-4.76223 -3.55249,-8.91572c-0.02088,-9.75702 -0.10488,-49.01614 -0.10488,-49.01614z" fill="url(#color-4)" stroke="#000000" stroke-width="6"/></g><g><path d="M406.8174,77.8391l-0.1854,19.65647l-41.06583,-0.38748l0.18541,-19.65647z" fill="#a0f2ff" stroke="#000000" stroke-width="6"/><path d="M406.74996,96.30984c0,0 -0.18502,19.6161 -0.23534,24.95052c-0.02375,2.51839 -3.13376,5.53193 -5.90579,5.50577c-5.31671,-0.05016 -23.85067,-0.22504 -31.67935,-0.29891c-2.18262,-0.0206 -3.50964,-2.52538 -3.48899,-4.7142c0.0485,-5.14178 0.24364,-25.83066 0.24364,-25.83066z" fill="#ffffa7" stroke="#000000" stroke-width="6"/><path d="M392.68254,116.28276c-0.04068,4.31213 -3.56869,7.77484 -7.88007,7.73416c-4.31135,-0.04068 -7.77345,-3.56933 -7.73278,-7.88148c0.04068,-4.31213 3.56869,-7.77485 7.88007,-7.73417c4.31135,0.04068 7.77345,3.56933 7.73278,7.88148z" fill="#000000" stroke="#ffffff" stroke-width="4"/><path d="M407.34649,77.60682c0,0 0.07964,31.56202 0.1013,40.14503c0.01022,4.05206 -3.05902,8.92291 -5.83133,8.90073c-5.31723,-0.04254 -23.85299,-0.19088 -31.68243,-0.25353c-2.18284,-0.01747 -3.54361,-4.03793 -3.5525,-7.55971c-0.02088,-8.27306 -0.10487,-41.56117 -0.10487,-41.56117z" fill="url(#color-5)" stroke="#000000" stroke-width="6"/><path d="M406.9465,78.40696c0,0 0.07964,31.56202 0.1013,40.14503c0.01022,4.05206 -3.05902,8.92292 -5.83133,8.90073c-5.31723,-0.04254 -23.85299,-0.19088 -31.68243,-0.25353c-2.18284,-0.01747 -3.54361,-4.03793 -3.55249,-7.55971c-0.02088,-8.27306 -0.10488,-41.56117 -0.10488,-41.56117z" fill="url(#color-6)" stroke="#000000" stroke-width="6"/></g><g data-paper-data="{&quot;index&quot;:null}"><path d="M63.32627,163.9588l19.65731,-0.03366l0.07045,41.06759l-19.65731,0.03365z" fill="#a0f2ff" stroke="#000000" stroke-width="6"/><path d="M81.79697,164.03394c0,0 20.68977,-0.03542 25.83178,-0.04423c2.18891,-0.00375 4.68338,1.34256 4.68712,3.52528c0.01343,7.82902 0.04523,26.36377 0.05435,31.68071c0.00475,2.77215 -3.0327,5.8588 -5.5512,5.86311c-5.33465,0.00913 -24.95159,0.04272 -24.95159,0.04272z" fill="#ffffa7" stroke="#000000" stroke-width="6"/><path d="M94.1268,183.39534c-0.0074,-4.31156 3.48245,-7.81274 7.79477,-7.82012c4.31234,-0.00738 7.81414,3.48185 7.82154,7.79339c0.0074,4.31156 -3.48245,7.81274 -7.79476,7.82012c-4.31234,0.00738 -7.81415,-3.48185 -7.82155,-7.79339z" fill="#000000" stroke="#ffffff" stroke-width="4"/><path d="M63.14877,164.48253c0,0 33.28647,0.34098 41.55912,0.42572c3.5216,0.03607 7.53145,1.42784 7.53206,3.61075c0.00221,7.82969 0.00744,26.36604 0.00894,31.68344c0.00078,2.77239 -4.89362,5.80395 -8.94548,5.76244c-8.58259,-0.08792 -40.14306,-0.41121 -40.14306,-0.41121z" fill="url(#color-7)" stroke="#000000" stroke-width="6"/><path d="M63.95198,164.08872c0,0 33.28647,0.34098 41.55912,0.42572c3.5216,0.03607 7.53145,1.42784 7.53206,3.61075c0.00221,7.82969 0.00744,26.36604 0.00894,31.68344c0.00078,2.77239 -4.89362,5.80395 -8.94548,5.76244c-8.58259,-0.08792 -40.14306,-0.41121 -40.14306,-0.41121z" fill="url(#color-8)" stroke="#000000" stroke-width="6"/></g><g data-paper-data="{&quot;index&quot;:null}"><path d="M159.3831,300.45801l-0.17763,-19.65654l41.06598,-0.37122l0.17762,19.65654z" fill="#a0f2ff" stroke="#000000" stroke-width="6"/><path d="M159.32296,281.98725c0,0 -0.18695,-20.68896 -0.23341,-25.83076c-0.01978,-2.18883 1.30823,-4.69308 3.49086,-4.71281c7.82871,-0.07077 26.36273,-0.23832 31.67946,-0.28637c2.77205,-0.02506 5.88085,2.98971 5.90361,5.50812c0.0482,5.33444 0.22546,24.9506 0.22546,24.9506z" fill="#ffffa7" stroke="#000000" stroke-width="6"/><path d="M178.59354,269.51595c-4.31139,0.03898 -7.83804,-3.42514 -7.877,-7.73729c-0.03897,-4.31217 3.42453,-7.83944 7.7359,-7.87841c4.31139,-0.03898 7.83804,3.42514 7.877,7.73728c0.03897,4.31217 -3.42453,7.83944 -7.7359,7.87842z" fill="#000000" stroke="#ffffff" stroke-width="4"/><path d="M159.90812,300.63167c0,0 0.09718,-33.28808 0.12133,-41.56112c0.01028,-3.52177 1.37265,-7.5417 3.55549,-7.5583c7.82946,-0.05955 26.36528,-0.20055 31.68252,-0.24098c2.77231,-0.02109 5.83963,4.85098 5.82781,8.90303c-0.02506,8.583 -0.1172,40.145 -0.1172,40.145z" fill="url(#color-9)" stroke="#000000" stroke-width="6"/><path d="M159.50843,299.83136c0,0 0.09719,-33.28808 0.12134,-41.56112c0.01028,-3.52177 1.37264,-7.5417 3.55548,-7.5583c7.82946,-0.05955 26.36528,-0.20055 31.68253,-0.24098c2.77231,-0.02109 5.83963,4.85099 5.82781,8.90304c-0.02506,8.583 -0.1172,40.14499 -0.1172,40.14499z" fill="url(#color-10)" stroke="#000000" stroke-width="6"/></g><path d="M502.00752,-54.23273v430.93093h-66.06607v-430.93093z" data-paper-data="{&quot;index&quot;:null}" fill="#5b00ff" stroke="#000000" stroke-width="0"/><path d="M503.00452,-24.36486v99.0991h-534.53453v-99.0991z" data-paper-data="{&quot;index&quot;:null}" fill="#5b00ff" stroke="#000000" stroke-width="0"/><path d="M-47.19085,546.29204v-618.61862h103.6036v618.61862z" data-paper-data="{&quot;index&quot;:null}" fill="#5b00ff" stroke="none" stroke-width="0"/><path d="M-193.69218,563.81456v-258.25826h534.53453v258.25826z" data-paper-data="{&quot;index&quot;:null}" fill="#5b00ff" stroke="#000000" stroke-width="0"/><text transform="translate(160.75,323.25) scale(0.5,0.5)" font-size="40" xml:space="preserve" fill="#ff0000" fill-rule="nonzero" stroke="none" stroke-width="1" stroke-linecap="butt" stroke-linejoin="miter" stroke-miterlimit="10" stroke-dasharray="" stroke-dashoffset="0" font-family="Serif" font-weight="normal" text-anchor="start" style="mix-blend-mode: normal"><tspan x="0" dy="0">Sam</tspan></text><text transform="translate(14,182.75) scale(0.5,0.5)" font-size="40" xml:space="preserve" fill="#ff0000" fill-rule="nonzero" stroke="none" stroke-width="1" stroke-linecap="butt" stroke-linejoin="miter" stroke-miterlimit="10" stroke-dasharray="" stroke-dashoffset="0" font-family="Serif" font-weight="normal" text-anchor="start" style="mix-blend-mode: normal"><tspan x="0" dy="0">Billy</tspan></text><text transform="translate(154,59.75) scale(0.5,0.5)" font-size="40" xml:space="preserve" fill="#ff0000" fill-rule="nonzero" stroke="none" stroke-width="1" stroke-linecap="butt" stroke-linejoin="miter" stroke-miterlimit="10" stroke-dasharray="" stroke-dashoffset="0" font-family="Serif" font-weight="normal" text-anchor="start" style="mix-blend-mode: normal"><tspan x="0" dy="0">Sam JR</tspan></text><text transform="translate(251.5,60.75) scale(0.5,0.5)" font-size="40" xml:space="preserve" fill="#ff0000" fill-rule="nonzero" stroke="none" stroke-width="1" stroke-linecap="butt" stroke-linejoin="miter" stroke-miterlimit="10" stroke-dasharray="" stroke-dashoffset="0" font-family="Serif" font-weight="normal" text-anchor="start" style="mix-blend-mode: normal"><tspan x="0" dy="0">Samuel</tspan></text><text transform="translate(343.98498,57.253) scale(0.5,0.5)" font-size="40" xml:space="preserve" fill="#ff0000" fill-rule="nonzero" stroke="none" stroke-width="1" stroke-linecap="butt" stroke-linejoin="miter" stroke-miterlimit="10" stroke-dasharray="" stroke-dashoffset="0" font-family="Serif" font-weight="normal" text-anchor="start" style="mix-blend-mode: normal"><tspan x="0" dy="0">Tom</tspan></text><text transform="translate(164.2913,351.58521) scale(0.5,0.5)" font-size="40" xml:space="preserve" fill="#ff0000" fill-rule="nonzero" stroke="none" stroke-width="1" stroke-linecap="butt" stroke-linejoin="miter" stroke-miterlimit="10" stroke-dasharray="" stroke-dashoffset="0" font-family="Serif" font-weight="normal" text-anchor="start" style="mix-blend-mode: normal"><tspan x="0" dy="0">The five are resting</tspan></text></g></g></svg>