<svg version="1.1" xmlns="http://www.w3.org/2000/svg" xmlns:xlink="http://www.w3.org/1999/xlink" width="114.0478" height="78.50642" viewBox="0,0,114.0478,78.50642"><g transform="translate(-193.82666,-141.6858)"><g data-paper-data="{&quot;isPaintingLayer&quot;:true}" fill-rule="nonzero" stroke-miterlimit="10" stroke-dasharray="" stroke-dashoffset="0" style="mix-blend-mode: normal"><path d="M197.82666,204.75951v-59.07371h67.27144l36.42485,30.44367l-36.42485,28.63004z" fill="#faa51f" stroke="#000000" stroke-width="8" stroke-linecap="butt" stroke-linejoin="miter"/><g><g><path d="M262.45527,158.44717l3.56486,-3.89585l1.79369,5.81041c0,0 3.38622,2.21662 4.47759,3.83339c1.76108,2.66947 1.95471,4.92802 1.95471,4.92802c0,0 3.67941,0.88374 4.45897,3.73007c0.83123,2.83702 -1.14011,8.47249 -10.57592,10.86612c-9.4265,2.44529 -17.17904,0.26874 -21.17963,-5.35735c-3.87865,-5.54139 1.37694,-12.78203 1.08049,-12.35526l-1.6611,-9.51447l6.84365,3.9404c0,0 2.21293,-1.03878 4.62645,-1.26034c0.8875,-0.10659 2.49311,-0.07589 3.29591,-0.06054z" fill="#faa51f" stroke="none" stroke-width="1" stroke-linecap="butt" stroke-linejoin="miter"/><path d="M274.07673,169.367c0,0 3.52955,0.64406 4.30911,3.49039c0.93454,2.81841 -1.3137,8.3971 -10.26085,10.54267c-2.04772,0.47566 -3.82784,0.95643 -6.73422,1.10679c-4.42309,0.31699 -9.46146,-2.18863 -9.45223,-8.05723c0.03347,-3.36619 4.30577,-3.33599 4.30577,-3.33599l3.68729,-1.14445c0,0 3.74549,0.65849 5.92957,0.05159c2.18408,-0.6069 2.08354,-2.34886 2.08354,-2.34886l4.5613,-1.62195l1.29892,0.99267z" fill="#ffffff" stroke="none" stroke-width="1" stroke-linecap="butt" stroke-linejoin="miter"/><path d="M282.2318,169.33759c0,0 -0.91216,0.85773 -2.25109,1.41901c-1.08994,0.46308 -3.39596,0.98528 -3.39596,0.98528" fill="none" stroke="#8e5322" stroke-width="1.4" stroke-linecap="round" stroke-linejoin="round"/><path d="M282.27423,175.19688c0,0 -0.98151,0.17686 -2.38048,0.10893c-1.50229,-0.04931 -2.87241,-0.54913 -2.87241,-0.54913" fill="none" stroke="#8e5322" stroke-width="1.4" stroke-linecap="round" stroke-linejoin="round"/><path d="M254.83078,161.42111l-2.81891,-1.73216" fill="none" stroke="#8e5322" stroke-width="1.4" stroke-linecap="round" stroke-linejoin="round"/><path d="M262.45527,158.44717l3.56486,-3.89585l1.79369,5.81041c0,0 3.38622,2.21662 4.47759,3.83339c1.76108,2.66947 1.95471,4.92802 1.95471,4.92802c0,0 3.67941,0.88374 4.45897,3.73007c0.83123,2.83702 -1.14011,8.47249 -10.57592,10.86612c-9.4265,2.44529 -17.17904,0.26874 -21.17963,-5.35735c-3.87865,-5.54139 1.37694,-12.78203 1.08049,-12.35526l-1.6611,-9.51447l6.84365,3.9404c0,0 2.21293,-1.03878 4.62645,-1.26034c0.8875,-0.10659 2.49311,-0.07589 3.29591,-0.06054z" fill="none" stroke="#8e5322" stroke-width="1.4" stroke-linecap="round" stroke-linejoin="round"/><path d="M246.53998,176.089c0,0 -1.80805,0.3258 -2.74721,0.44169c-0.93916,0.11589 -3.03762,0.014 -3.03762,0.014" fill="none" stroke="#8e5322" stroke-width="1.4" stroke-linecap="round" stroke-linejoin="round"/><path d="M240.01652,171.55755c0,0 1.19234,0.10516 3.3178,0.9489c1.94256,0.71668 3.21356,1.55437 3.21356,1.55437" fill="none" stroke="#8e5322" stroke-width="1.4" stroke-linecap="round" stroke-linejoin="round"/></g><g><path d="M271.17866,164.23562c1.61634,2.1622 1.77181,4.80097 0.44638,5.73317c-1.35847,1.04482 -3.77945,0.041 -5.4051,-2.17285c-1.61634,-2.1622 -1.77181,-4.80097 -0.44638,-5.73317c1.37709,-0.94151 3.78876,0.01066 5.4051,2.17285z" fill="#ffffff" stroke="#8e5322" stroke-width="1.4" stroke-linecap="round" stroke-linejoin="round"/><path d="M271.20382,166.15117c0.1964,0.49797 -0.02046,1.0704 -0.5794,1.22446c-0.44631,0.18709 -0.9764,-0.09074 -1.19141,-0.69202c-0.1964,-0.49797 0.02046,-1.0704 0.5794,-1.22446c0.51658,-0.09308 1.04667,0.18475 1.19141,0.69202" fill="#414142" stroke="none" stroke-width="1" stroke-linecap="butt" stroke-linejoin="miter"/></g><g><path d="M259.1185,166.56877c1.61634,2.1622 1.57448,4.88986 -0.02366,6.08455c-1.59814,1.19468 -4.2495,0.39238 -5.82348,-1.83078c-1.61634,-2.1622 -1.57448,-4.88986 0.02366,-6.08455c1.60745,-1.14302 4.20715,-0.33141 5.82348,1.83078z" fill="#ffffff" stroke="#8e5322" stroke-width="1.4" stroke-linecap="round" stroke-linejoin="round"/><path d="M259.05896,168.60627c0.04143,0.52589 -0.34903,1.02294 -0.82327,1.05506c-0.52589,0.04143 -0.91962,-0.36765 -0.97036,-0.9452c-0.04143,-0.52589 0.34903,-1.02294 0.82327,-1.05506c0.47423,-0.03212 0.91962,0.36765 0.97036,0.9452" fill="#414142" stroke="none" stroke-width="1" stroke-linecap="butt" stroke-linejoin="miter"/></g><path d="M265.17193,171.4516c0.87819,-0.15824 2.07657,-0.90754 2.25343,0.07397c0.02281,0.42258 -0.7218,2.21016 -1.66096,2.32605c-1.04248,0.13451 -2.9748,-1.11737 -2.95015,-1.86852c0.02466,-0.75114 1.5828,-0.39188 2.35767,-0.53151z" fill="#5f4b43" stroke="#8e5322" stroke-width="1.4" stroke-linecap="round" stroke-linejoin="round"/><path d="M265.03614,180.16981c-2.80398,0.7186 -4.18249,-0.41973 -4.18249,-0.41973" fill="#ffffff" stroke="#8e5322" stroke-width="1.4" stroke-linecap="round" stroke-linejoin="round"/></g><path d="M224.18161,204.93785c0,6.21561 -5.12715,11.25437 -11.45181,11.25437c-6.32466,0 -11.45181,-5.03876 -11.45181,-11.25437c0,-6.21561 5.12715,-11.25437 11.45181,-11.25437c6.32466,0 11.45181,5.03876 11.45181,11.25437z" fill="#a3a3a3" stroke="#000000" stroke-width="8" stroke-linecap="butt" stroke-linejoin="miter"/><path d="M271.56843,204.93785c0,6.21561 -5.12716,11.25437 -11.45182,11.25437c-6.32466,0 -11.45181,-5.03876 -11.45181,-11.25437c0,-6.21561 5.12715,-11.25437 11.45181,-11.25437c6.32466,0 11.45182,5.03876 11.45182,11.25437z" fill="#a3a3a3" stroke="#000000" stroke-width="8" stroke-linecap="butt" stroke-linejoin="miter"/></g></g></svg>